<svg xmlns="http://www.w3.org/2000/svg" xmlns:xlink="http://www.w3.org/1999/xlink" width="80" zoomAndPan="magnify" viewBox="0 0 60 60" height="80" preserveAspectRatio="xMidYMid meet" version="1.0"><defs><clipPath id="c727b2577a"><path d="M 4.835938 0 L 55.085938 0 L 55.085938 60 L 4.835938 60 Z M 4.835938 0 " clip-rule="nonzero"/></clipPath></defs><g clip-path="url(#c727b2577a)"><path fill="#4f4f1a" d="M 54.191406 0 L 22.257812 0 C 21.992188 0.0117188 21.769531 0.109375 21.582031 0.296875 C 21.394531 0.480469 21.296875 0.707031 21.289062 0.96875 L 21.289062 9.679688 L 5.804688 9.679688 C 5.539062 9.679688 5.308594 9.773438 5.121094 9.960938 C 4.933594 10.152344 4.835938 10.378906 4.835938 10.644531 L 4.835938 59.03125 C 4.835938 59.296875 4.933594 59.527344 5.121094 59.714844 C 5.308594 59.90625 5.539062 60 5.804688 60 L 36.773438 60 C 37.039062 60 37.265625 59.90625 37.457031 59.714844 C 37.644531 59.527344 37.738281 59.296875 37.738281 59.03125 L 37.738281 50.320312 L 54.191406 50.320312 C 54.457031 50.320312 54.683594 50.226562 54.875 50.039062 C 55.0625 49.847656 55.15625 49.621094 55.15625 49.355469 L 55.15625 0.96875 C 55.15625 0.703125 55.0625 0.472656 54.875 0.285156 C 54.683594 0.09375 54.457031 0 54.191406 0 Z M 23.222656 2.777344 L 33.574219 9.679688 L 23.222656 9.679688 Z M 35.804688 58.0625 L 6.773438 58.0625 L 6.773438 11.613281 L 35.804688 11.613281 Z M 53.222656 48.386719 L 37.738281 48.386719 L 37.738281 10.644531 C 37.71875 10.3125 37.574219 10.042969 37.308594 9.839844 L 25.453125 1.9375 L 53.222656 1.9375 Z M 53.222656 48.386719 " fill-opacity="1" fill-rule="nonzero"/></g><path fill="#4f4f1a" d="M 11.613281 35.804688 L 30.964844 35.804688 C 31.234375 35.804688 31.460938 35.710938 31.648438 35.523438 C 31.839844 35.332031 31.933594 35.105469 31.933594 34.839844 L 31.933594 30.96875 C 31.933594 30.699219 31.839844 30.472656 31.648438 30.285156 C 31.460938 30.09375 31.234375 30 30.964844 30 L 29.996094 30 C 29.996094 29.191406 29.882812 28.394531 29.660156 27.617188 C 29.4375 26.835938 29.113281 26.101562 28.683594 25.414062 C 28.257812 24.726562 27.742188 24.109375 27.144531 23.5625 C 26.542969 23.019531 25.878906 22.566406 25.152344 22.207031 C 25.148438 21.699219 25.046875 21.210938 24.847656 20.742188 C 24.648438 20.273438 24.367188 19.859375 24.003906 19.503906 C 23.644531 19.144531 23.226562 18.871094 22.757812 18.675781 C 22.285156 18.484375 21.796875 18.386719 21.289062 18.386719 C 20.78125 18.386719 20.289062 18.484375 19.820312 18.675781 C 19.347656 18.871094 18.933594 19.144531 18.570312 19.503906 C 18.210938 19.859375 17.929688 20.273438 17.730469 20.742188 C 17.53125 21.210938 17.429688 21.699219 17.421875 22.207031 C 16.695312 22.566406 16.035156 23.019531 15.433594 23.5625 C 14.832031 24.109375 14.320312 24.726562 13.890625 25.414062 C 13.464844 26.101562 13.136719 26.835938 12.914062 27.617188 C 12.691406 28.394531 12.582031 29.191406 12.578125 30 L 11.613281 30 C 11.34375 30 11.117188 30.09375 10.925781 30.285156 C 10.738281 30.472656 10.644531 30.699219 10.644531 30.96875 L 10.644531 34.839844 C 10.644531 35.105469 10.738281 35.332031 10.925781 35.523438 C 11.117188 35.710938 11.34375 35.804688 11.613281 35.804688 Z M 19.519531 21.46875 C 19.675781 21.121094 19.914062 20.84375 20.234375 20.632812 C 20.554688 20.425781 20.90625 20.324219 21.289062 20.324219 C 21.671875 20.324219 22.019531 20.425781 22.339844 20.632812 C 22.660156 20.84375 22.898438 21.121094 23.054688 21.46875 C 21.878906 21.230469 20.699219 21.230469 19.519531 21.46875 Z M 21.289062 23.230469 C 21.734375 23.230469 22.171875 23.273438 22.609375 23.359375 C 23.042969 23.449219 23.46875 23.578125 23.878906 23.746094 C 24.289062 23.917969 24.679688 24.125 25.046875 24.375 C 25.417969 24.621094 25.757812 24.902344 26.074219 25.214844 C 26.386719 25.53125 26.667969 25.871094 26.917969 26.242188 C 27.164062 26.609375 27.371094 27 27.542969 27.410156 C 27.714844 27.820312 27.84375 28.242188 27.929688 28.679688 C 28.015625 29.117188 28.0625 29.554688 28.0625 30 L 14.515625 30 C 14.515625 29.554688 14.558594 29.117188 14.648438 28.679688 C 14.734375 28.242188 14.863281 27.820312 15.035156 27.410156 C 15.203125 27 15.414062 26.609375 15.660156 26.242188 C 15.90625 25.871094 16.1875 25.53125 16.503906 25.214844 C 16.816406 24.902344 17.160156 24.621094 17.527344 24.375 C 17.898438 24.125 18.289062 23.917969 18.699219 23.746094 C 19.109375 23.578125 19.53125 23.449219 19.96875 23.359375 C 20.402344 23.273438 20.84375 23.230469 21.289062 23.230469 Z M 12.578125 31.933594 L 29.996094 31.933594 L 29.996094 33.871094 L 12.578125 33.871094 Z M 12.578125 31.933594 " fill-opacity="1" fill-rule="nonzero"/><path fill="#4f4f1a" d="M 21.289062 24.195312 C 20.722656 24.195312 20.171875 24.273438 19.628906 24.4375 C 19.089844 24.597656 18.582031 24.832031 18.109375 25.144531 C 17.636719 25.453125 17.21875 25.820312 16.855469 26.253906 C 16.488281 26.683594 16.195312 27.160156 15.96875 27.675781 C 15.859375 27.921875 15.855469 28.167969 15.953125 28.417969 C 16.050781 28.664062 16.222656 28.84375 16.464844 28.949219 C 16.589844 29.003906 16.71875 29.03125 16.851562 29.03125 C 17.046875 29.03125 17.222656 28.980469 17.382812 28.875 C 17.542969 28.769531 17.664062 28.628906 17.742188 28.453125 C 17.890625 28.109375 18.089844 27.792969 18.332031 27.503906 C 18.574219 27.214844 18.851562 26.96875 19.167969 26.761719 C 19.484375 26.554688 19.820312 26.398438 20.183594 26.292969 C 20.542969 26.183594 20.910156 26.128906 21.289062 26.128906 C 21.554688 26.128906 21.785156 26.035156 21.972656 25.847656 C 22.160156 25.65625 22.257812 25.429688 22.257812 25.160156 C 22.257812 24.894531 22.160156 24.667969 21.972656 24.476562 C 21.785156 24.289062 21.554688 24.195312 21.289062 24.195312 Z M 21.289062 24.195312 " fill-opacity="1" fill-rule="nonzero"/><path fill="#4f4f1a" d="M 31.933594 37.742188 L 10.644531 37.742188 C 10.375 37.742188 10.148438 37.835938 9.960938 38.023438 C 9.769531 38.214844 9.675781 38.441406 9.675781 38.710938 C 9.675781 38.976562 9.769531 39.203125 9.960938 39.394531 C 10.148438 39.582031 10.375 39.675781 10.644531 39.675781 L 31.933594 39.675781 C 32.199219 39.675781 32.429688 39.582031 32.617188 39.394531 C 32.804688 39.203125 32.902344 38.976562 32.902344 38.710938 C 32.902344 38.441406 32.804688 38.214844 32.617188 38.023438 C 32.429688 37.835938 32.199219 37.742188 31.933594 37.742188 Z M 31.933594 37.742188 " fill-opacity="1" fill-rule="nonzero"/><path fill="#4f4f1a" d="M 27.09375 41.613281 L 10.644531 41.613281 C 10.375 41.613281 10.148438 41.707031 9.960938 41.894531 C 9.769531 42.085938 9.675781 42.3125 9.675781 42.582031 C 9.675781 42.847656 9.769531 43.074219 9.960938 43.265625 C 10.148438 43.453125 10.375 43.546875 10.644531 43.546875 L 27.09375 43.546875 C 27.363281 43.546875 27.589844 43.453125 27.777344 43.265625 C 27.96875 43.074219 28.0625 42.847656 28.0625 42.582031 C 28.0625 42.3125 27.96875 42.085938 27.777344 41.894531 C 27.589844 41.707031 27.363281 41.613281 27.09375 41.613281 Z M 27.09375 41.613281 " fill-opacity="1" fill-rule="nonzero"/><path fill="#4f4f1a" d="M 27.09375 45.484375 L 10.644531 45.484375 C 10.375 45.484375 10.148438 45.578125 9.960938 45.765625 C 9.769531 45.957031 9.675781 46.183594 9.675781 46.449219 C 9.675781 46.71875 9.769531 46.945312 9.960938 47.136719 C 10.148438 47.324219 10.375 47.417969 10.644531 47.417969 L 27.09375 47.417969 C 27.363281 47.417969 27.589844 47.324219 27.777344 47.136719 C 27.96875 46.945312 28.0625 46.71875 28.0625 46.449219 C 28.0625 46.183594 27.96875 45.957031 27.777344 45.765625 C 27.589844 45.578125 27.363281 45.484375 27.09375 45.484375 Z M 27.09375 45.484375 " fill-opacity="1" fill-rule="nonzero"/><path fill="#4f4f1a" d="M 27.09375 49.355469 L 10.644531 49.355469 C 10.375 49.355469 10.148438 49.449219 9.960938 49.636719 C 9.769531 49.828125 9.675781 50.054688 9.675781 50.320312 C 9.675781 50.589844 9.769531 50.816406 9.960938 51.007812 C 10.148438 51.195312 10.375 51.289062 10.644531 51.289062 L 27.09375 51.289062 C 27.363281 51.289062 27.589844 51.195312 27.777344 51.007812 C 27.96875 50.816406 28.0625 50.589844 28.0625 50.320312 C 28.0625 50.054688 27.96875 49.828125 27.777344 49.636719 C 27.589844 49.449219 27.363281 49.355469 27.09375 49.355469 Z M 27.09375 49.355469 " fill-opacity="1" fill-rule="nonzero"/><path fill="#4f4f1a" d="M 31.933594 41.613281 L 29.996094 41.613281 C 29.730469 41.613281 29.503906 41.707031 29.3125 41.894531 C 29.125 42.085938 29.03125 42.3125 29.03125 42.582031 C 29.03125 42.847656 29.125 43.074219 29.3125 43.265625 C 29.503906 43.453125 29.730469 43.546875 29.996094 43.546875 L 31.933594 43.546875 C 32.199219 43.546875 32.429688 43.453125 32.617188 43.265625 C 32.804688 43.074219 32.902344 42.847656 32.902344 42.582031 C 32.902344 42.3125 32.804688 42.085938 32.617188 41.894531 C 32.429688 41.707031 32.199219 41.613281 31.933594 41.613281 Z M 31.933594 41.613281 " fill-opacity="1" fill-rule="nonzero"/><path fill="#4f4f1a" d="M 31.933594 45.484375 L 29.996094 45.484375 C 29.730469 45.484375 29.503906 45.578125 29.3125 45.765625 C 29.125 45.957031 29.03125 46.183594 29.03125 46.449219 C 29.03125 46.71875 29.125 46.945312 29.3125 47.136719 C 29.503906 47.324219 29.730469 47.417969 29.996094 47.417969 L 31.933594 47.417969 C 32.199219 47.417969 32.429688 47.324219 32.617188 47.136719 C 32.804688 46.945312 32.902344 46.71875 32.902344 46.449219 C 32.902344 46.183594 32.804688 45.957031 32.617188 45.765625 C 32.429688 45.578125 32.199219 45.484375 31.933594 45.484375 Z M 31.933594 45.484375 " fill-opacity="1" fill-rule="nonzero"/><path fill="#4f4f1a" d="M 31.933594 49.355469 L 29.996094 49.355469 C 29.730469 49.355469 29.503906 49.449219 29.3125 49.636719 C 29.125 49.828125 29.03125 50.054688 29.03125 50.320312 C 29.03125 50.589844 29.125 50.816406 29.3125 51.007812 C 29.503906 51.195312 29.730469 51.289062 29.996094 51.289062 L 31.933594 51.289062 C 32.199219 51.289062 32.429688 51.195312 32.617188 51.007812 C 32.804688 50.816406 32.902344 50.589844 32.902344 50.320312 C 32.902344 50.054688 32.804688 49.828125 32.617188 49.636719 C 32.429688 49.449219 32.199219 49.355469 31.933594 49.355469 Z M 31.933594 49.355469 " fill-opacity="1" fill-rule="nonzero"/></svg>