<svg xmlns="http://www.w3.org/2000/svg" xmlns:xlink="http://www.w3.org/1999/xlink" width="80" zoomAndPan="magnify" viewBox="0 0 60 60" height="80" preserveAspectRatio="xMidYMid meet" version="1.0"><defs><clipPath id="13e7b1e103"><path d="M 13.273438 0 L 47 0 L 47 60 L 13.273438 60 Z M 13.273438 0 " clip-rule="nonzero"/></clipPath><clipPath id="8be06a7570"><path d="M 13.273438 20 L 47 20 L 47 22 L 13.273438 22 Z M 13.273438 20 " clip-rule="nonzero"/></clipPath><clipPath id="ca0a122769"><path d="M 13.273438 56 L 47 56 L 47 58 L 13.273438 58 Z M 13.273438 56 " clip-rule="nonzero"/></clipPath><clipPath id="a1e3ad1b56"><path d="M 6.710938 7.425781 L 53.210938 7.425781 L 53.210938 53.925781 L 6.710938 53.925781 Z M 6.710938 7.425781 " clip-rule="nonzero"/></clipPath></defs><g clip-path="url(#13e7b1e103)"><path fill="#96962c" d="M 16.226562 0.9375 C 15.113281 0.9375 14.207031 1.84375 14.207031 2.957031 L 14.207031 57.050781 C 14.207031 58.164062 15.113281 59.070312 16.226562 59.070312 L 43.777344 59.070312 C 44.890625 59.070312 45.796875 58.164062 45.796875 57.050781 L 45.796875 2.957031 C 45.796875 1.84375 44.890625 0.9375 43.777344 0.9375 Z M 43.777344 60 L 16.226562 60 C 14.601562 60 13.28125 58.675781 13.28125 57.050781 L 13.28125 2.957031 C 13.28125 1.332031 14.601562 0.0078125 16.226562 0.0078125 L 43.777344 0.0078125 C 45.402344 0.0078125 46.726562 1.332031 46.726562 2.957031 L 46.726562 57.050781 C 46.726562 58.675781 45.402344 60 43.777344 60 " fill-opacity="1" fill-rule="nonzero"/></g><g clip-path="url(#8be06a7570)"><path fill="#96962c" d="M 46.261719 21.433594 L 13.746094 21.433594 C 13.488281 21.433594 13.28125 21.226562 13.28125 20.96875 C 13.28125 20.714844 13.488281 20.503906 13.746094 20.503906 L 46.261719 20.503906 C 46.515625 20.503906 46.726562 20.714844 46.726562 20.96875 C 46.726562 21.226562 46.515625 21.433594 46.261719 21.433594 " fill-opacity="1" fill-rule="nonzero"/></g><path fill="#96962c" d="M 17.027344 10.984375 C 16.644531 10.984375 16.332031 11.296875 16.332031 11.679688 L 16.332031 18.066406 C 16.332031 18.449219 16.644531 18.761719 17.027344 18.761719 C 17.414062 18.761719 17.726562 18.449219 17.726562 18.066406 L 17.726562 11.679688 C 17.726562 11.296875 17.414062 10.984375 17.027344 10.984375 Z M 17.027344 19.691406 C 16.132812 19.691406 15.402344 18.960938 15.402344 18.066406 L 15.402344 11.679688 C 15.402344 10.78125 16.132812 10.054688 17.027344 10.054688 C 17.925781 10.054688 18.65625 10.78125 18.65625 11.679688 L 18.65625 18.066406 C 18.65625 18.960938 17.925781 19.691406 17.027344 19.691406 " fill-opacity="1" fill-rule="nonzero"/><path fill="#96962c" d="M 17.027344 23.054688 C 16.644531 23.054688 16.332031 23.367188 16.332031 23.75 L 16.332031 33.542969 C 16.332031 33.925781 16.644531 34.238281 17.027344 34.238281 C 17.414062 34.238281 17.726562 33.925781 17.726562 33.542969 L 17.726562 23.75 C 17.726562 23.367188 17.414062 23.054688 17.027344 23.054688 Z M 17.027344 35.167969 C 16.132812 35.167969 15.402344 34.441406 15.402344 33.542969 L 15.402344 23.75 C 15.402344 22.851562 16.132812 22.125 17.027344 22.125 C 17.925781 22.125 18.65625 22.851562 18.65625 23.75 L 18.65625 33.542969 C 18.65625 34.441406 17.925781 35.167969 17.027344 35.167969 " fill-opacity="1" fill-rule="nonzero"/><g clip-path="url(#ca0a122769)"><path fill="#96962c" d="M 46.261719 57.433594 L 13.746094 57.433594 C 13.488281 57.433594 13.28125 57.226562 13.28125 56.96875 C 13.28125 56.714844 13.488281 56.503906 13.746094 56.503906 L 46.261719 56.503906 C 46.515625 56.503906 46.726562 56.714844 46.726562 56.96875 C 46.726562 57.226562 46.515625 57.433594 46.261719 57.433594 " fill-opacity="1" fill-rule="nonzero"/></g><g clip-path="url(#a1e3ad1b56)"><path fill="#4f4f1a" d="M 30 10.035156 C 18.597656 10.035156 9.320312 19.308594 9.320312 30.710938 C 9.320312 42.109375 18.597656 51.386719 30 51.386719 C 41.398438 51.386719 50.675781 42.109375 50.675781 30.710938 C 50.675781 19.308594 41.398438 10.035156 30 10.035156 Z M 30 53.996094 C 26.855469 53.996094 23.804688 53.378906 20.933594 52.164062 C 18.160156 50.992188 15.671875 49.3125 13.53125 47.175781 C 11.394531 45.039062 9.714844 42.546875 8.542969 39.773438 C 7.328125 36.902344 6.710938 33.851562 6.710938 30.710938 C 6.710938 27.566406 7.328125 24.519531 8.542969 21.644531 C 9.714844 18.871094 11.394531 16.382812 13.53125 14.246094 C 15.671875 12.105469 18.160156 10.425781 20.933594 9.253906 C 23.804688 8.039062 26.855469 7.425781 30 7.425781 C 33.140625 7.425781 36.191406 8.039062 39.0625 9.253906 C 41.835938 10.425781 44.324219 12.105469 46.464844 14.246094 C 48.601562 16.382812 50.28125 18.871094 51.453125 21.644531 C 52.667969 24.519531 53.285156 27.566406 53.285156 30.710938 C 53.285156 33.851562 52.667969 36.902344 51.453125 39.773438 C 50.28125 42.546875 48.601562 45.039062 46.464844 47.175781 C 44.324219 49.3125 41.835938 50.992188 39.0625 52.164062 C 36.191406 53.378906 33.140625 53.996094 30 53.996094 " fill-opacity="1" fill-rule="nonzero"/></g><path fill="#4f4f1a" d="M 41.402344 49.609375 L 16.210938 13.550781 L 18.347656 12.058594 L 43.539062 48.117188 L 41.402344 49.609375 " fill-opacity="1" fill-rule="nonzero"/></svg>