<svg xmlns="http://www.w3.org/2000/svg" xmlns:xlink="http://www.w3.org/1999/xlink" width="80" zoomAndPan="magnify" viewBox="0 0 60 60" height="80" preserveAspectRatio="xMidYMid meet" version="1.0"><rect x="-6" width="72" fill="#ffffff" y="-6" height="72" fill-opacity="1"/><rect x="-6" width="72" fill="#ffffff" y="-6" height="72" fill-opacity="1"/><path fill="#edce6f" d="M 30.894531 18.769531 L 30.894531 18.210938 C 30.894531 18.074219 30.871094 17.941406 30.816406 17.816406 C 30.765625 17.691406 30.691406 17.578125 30.59375 17.480469 C 30.496094 17.382812 30.382812 17.308594 30.257812 17.257812 C 30.132812 17.203125 30 17.179688 29.863281 17.179688 C 29.726562 17.179688 29.59375 17.203125 29.464844 17.257812 C 29.339844 17.308594 29.226562 17.382812 29.132812 17.480469 C 29.035156 17.578125 28.960938 17.691406 28.90625 17.816406 C 28.855469 17.941406 28.828125 18.074219 28.828125 18.210938 L 28.828125 18.769531 C 28.828125 18.90625 28.855469 19.039062 28.90625 19.167969 C 28.960938 19.292969 29.035156 19.40625 29.132812 19.503906 C 29.226562 19.597656 29.339844 19.675781 29.464844 19.726562 C 29.59375 19.777344 29.726562 19.804688 29.863281 19.804688 C 30 19.804688 30.132812 19.777344 30.257812 19.726562 C 30.382812 19.675781 30.496094 19.597656 30.59375 19.503906 C 30.691406 19.40625 30.765625 19.292969 30.816406 19.167969 C 30.871094 19.039062 30.894531 18.90625 30.894531 18.769531 Z M 30.894531 18.769531 " fill-opacity="1" fill-rule="nonzero"/><path fill="#edce6f" d="M 29.863281 39.988281 C 29.722656 39.988281 29.59375 40.015625 29.464844 40.066406 C 29.335938 40.121094 29.226562 40.195312 29.128906 40.292969 C 29.03125 40.390625 28.957031 40.503906 28.90625 40.632812 C 28.851562 40.757812 28.828125 40.890625 28.828125 41.03125 L 28.828125 41.589844 C 28.828125 41.726562 28.855469 41.859375 28.90625 41.984375 C 28.960938 42.113281 29.035156 42.222656 29.132812 42.320312 C 29.226562 42.417969 29.339844 42.492188 29.464844 42.542969 C 29.59375 42.597656 29.726562 42.621094 29.863281 42.621094 C 30 42.621094 30.132812 42.597656 30.257812 42.542969 C 30.382812 42.492188 30.496094 42.417969 30.59375 42.320312 C 30.691406 42.222656 30.765625 42.113281 30.816406 41.984375 C 30.871094 41.859375 30.894531 41.726562 30.894531 41.589844 L 30.894531 41.03125 C 30.898438 40.890625 30.875 40.757812 30.820312 40.628906 C 30.769531 40.503906 30.695312 40.390625 30.597656 40.292969 C 30.5 40.191406 30.386719 40.117188 30.261719 40.066406 C 30.132812 40.011719 30 39.988281 29.863281 39.988281 Z M 29.863281 39.988281 " fill-opacity="1" fill-rule="nonzero"/><path fill="#edce6f" d="M 40.984375 28.859375 C 40.847656 28.859375 40.714844 28.886719 40.589844 28.9375 C 40.460938 28.988281 40.347656 29.066406 40.253906 29.160156 C 40.15625 29.257812 40.082031 29.371094 40.027344 29.496094 C 39.976562 29.625 39.949219 29.753906 39.949219 29.894531 C 39.949219 30.03125 39.976562 30.160156 40.027344 30.289062 C 40.082031 30.414062 40.15625 30.527344 40.253906 30.625 C 40.347656 30.722656 40.460938 30.796875 40.589844 30.847656 C 40.714844 30.902344 40.847656 30.925781 40.984375 30.925781 L 41.550781 30.925781 C 41.6875 30.925781 41.820312 30.902344 41.945312 30.847656 C 42.074219 30.796875 42.183594 30.722656 42.28125 30.625 C 42.378906 30.527344 42.453125 30.414062 42.507812 30.289062 C 42.558594 30.160156 42.585938 30.03125 42.585938 29.894531 C 42.585938 29.753906 42.558594 29.625 42.507812 29.496094 C 42.453125 29.371094 42.378906 29.257812 42.28125 29.160156 C 42.183594 29.066406 42.074219 28.988281 41.945312 28.9375 C 41.820312 28.886719 41.6875 28.859375 41.550781 28.859375 Z M 40.984375 28.859375 " fill-opacity="1" fill-rule="nonzero"/><path fill="#edce6f" d="M 18.179688 28.859375 C 18.042969 28.859375 17.914062 28.886719 17.785156 28.9375 C 17.660156 28.988281 17.546875 29.066406 17.449219 29.160156 C 17.351562 29.257812 17.277344 29.371094 17.226562 29.496094 C 17.171875 29.625 17.148438 29.753906 17.148438 29.894531 C 17.148438 30.03125 17.171875 30.160156 17.226562 30.289062 C 17.277344 30.414062 17.351562 30.527344 17.449219 30.625 C 17.546875 30.722656 17.660156 30.796875 17.785156 30.847656 C 17.914062 30.902344 18.042969 30.925781 18.179688 30.925781 L 18.742188 30.925781 C 18.878906 30.925781 19.007812 30.902344 19.136719 30.847656 C 19.261719 30.796875 19.375 30.722656 19.472656 30.625 C 19.570312 30.527344 19.644531 30.414062 19.695312 30.289062 C 19.75 30.160156 19.773438 30.03125 19.773438 29.894531 C 19.773438 29.753906 19.75 29.625 19.695312 29.496094 C 19.644531 29.371094 19.570312 29.257812 19.472656 29.160156 C 19.375 29.066406 19.261719 28.988281 19.136719 28.9375 C 19.007812 28.886719 18.878906 28.859375 18.742188 28.859375 Z M 18.179688 28.859375 " fill-opacity="1" fill-rule="nonzero"/><path fill="#edce6f" d="M 45.074219 24.371094 C 45.027344 24.242188 44.960938 24.125 44.867188 24.023438 C 44.773438 23.921875 44.664062 23.839844 44.542969 23.78125 C 44.417969 23.722656 44.285156 23.691406 44.148438 23.6875 C 44.011719 23.679688 43.878906 23.703125 43.75 23.75 C 43.621094 23.796875 43.503906 23.867188 43.402344 23.957031 C 43.300781 24.050781 43.222656 24.160156 43.164062 24.285156 C 43.105469 24.40625 43.074219 24.539062 43.066406 24.675781 C 43.0625 24.8125 43.082031 24.945312 43.128906 25.074219 C 43.699219 26.628906 43.980469 28.234375 43.980469 29.894531 C 43.980469 30.433594 43.949219 30.976562 43.886719 31.515625 C 43.824219 32.054688 43.734375 32.589844 43.609375 33.117188 C 43.484375 33.644531 43.332031 34.164062 43.148438 34.675781 C 42.964844 35.1875 42.753906 35.683594 42.511719 36.171875 C 42.273438 36.65625 42.003906 37.128906 41.710938 37.582031 C 41.414062 38.039062 41.09375 38.476562 40.75 38.894531 C 40.40625 39.3125 40.035156 39.710938 39.644531 40.085938 C 39.253906 40.464844 38.84375 40.816406 38.410156 41.144531 C 37.980469 41.472656 37.53125 41.777344 37.0625 42.054688 C 36.597656 42.328125 36.117188 42.578125 35.621094 42.800781 C 35.125 43.023438 34.617188 43.214844 34.101562 43.378906 C 33.582031 43.539062 33.058594 43.671875 32.527344 43.777344 C 31.992188 43.878906 31.457031 43.949219 30.914062 43.992188 C 30.375 44.03125 29.832031 44.042969 29.289062 44.019531 C 28.746094 44 28.207031 43.945312 27.671875 43.863281 C 27.136719 43.777344 26.605469 43.664062 26.082031 43.519531 C 25.5625 43.375 25.046875 43.199219 24.546875 42.996094 C 24.042969 42.792969 23.554688 42.558594 23.078125 42.296875 C 22.601562 42.039062 22.140625 41.75 21.699219 41.4375 C 21.253906 41.125 20.832031 40.785156 20.425781 40.425781 C 20.023438 40.0625 19.640625 39.679688 19.28125 39.273438 C 18.921875 38.867188 18.585938 38.441406 18.277344 37.996094 C 17.964844 37.550781 17.679688 37.089844 17.421875 36.613281 C 17.164062 36.132812 16.9375 35.644531 16.734375 35.140625 C 16.535156 34.636719 16.363281 34.121094 16.222656 33.597656 C 16.078125 33.074219 15.96875 32.542969 15.886719 32.007812 C 15.804688 31.472656 15.757812 30.933594 15.738281 30.390625 C 15.71875 29.847656 15.734375 29.304688 15.777344 28.765625 C 15.820312 28.222656 15.894531 27.6875 16 27.15625 C 16.105469 26.621094 16.242188 26.097656 16.410156 25.582031 C 16.574219 25.066406 16.769531 24.558594 16.996094 24.066406 C 17.21875 23.570312 17.472656 23.09375 17.75 22.628906 C 18.03125 22.164062 18.335938 21.714844 18.667969 21.285156 C 19 20.855469 19.351562 20.445312 19.730469 20.058594 C 20.109375 19.667969 20.507812 19.300781 20.929688 18.960938 C 21.351562 18.617188 21.789062 18.300781 22.246094 18.007812 C 22.703125 17.714844 23.175781 17.449219 23.664062 17.210938 C 24.152344 16.972656 24.652344 16.765625 25.164062 16.585938 C 25.675781 16.402344 26.195312 16.253906 26.722656 16.132812 C 27.253906 16.011719 27.789062 15.925781 28.328125 15.867188 C 28.867188 15.808594 29.40625 15.777344 29.949219 15.78125 C 30.492188 15.785156 31.035156 15.820312 31.574219 15.886719 C 32.109375 15.953125 32.644531 16.050781 33.171875 16.175781 C 33.699219 16.304688 34.21875 16.460938 34.726562 16.648438 C 35.234375 16.835938 35.734375 17.050781 36.21875 17.296875 C 36.703125 17.542969 37.171875 17.8125 37.625 18.113281 C 38.078125 18.410156 38.511719 18.734375 38.925781 19.082031 C 39.34375 19.429688 39.738281 19.800781 40.109375 20.195312 L 29.902344 28.53125 L 26.761719 25.65625 C 26.570312 25.484375 26.347656 25.394531 26.09375 25.386719 C 25.835938 25.378906 25.609375 25.457031 25.410156 25.617188 C 25.210938 25.78125 25.089844 25.988281 25.042969 26.242188 C 25 26.492188 25.042969 26.730469 25.175781 26.953125 L 29.003906 33.316406 C 29.179688 33.605469 29.433594 33.773438 29.769531 33.816406 L 29.894531 33.816406 C 30.195312 33.824219 30.449219 33.71875 30.660156 33.5 L 44.972656 18.945312 C 45.074219 18.855469 45.15625 18.746094 45.214844 18.621094 C 45.273438 18.496094 45.304688 18.367188 45.3125 18.230469 C 45.316406 18.09375 45.296875 17.960938 45.25 17.832031 C 45.203125 17.703125 45.136719 17.585938 45.042969 17.484375 C 44.949219 17.382812 44.84375 17.304688 44.71875 17.246094 C 44.59375 17.1875 44.464844 17.152344 44.324219 17.148438 C 44.1875 17.140625 44.054688 17.160156 43.925781 17.207031 C 43.796875 17.253906 43.683594 17.324219 43.582031 17.414062 L 41.773438 18.894531 C 41.324219 18.414062 40.847656 17.960938 40.34375 17.539062 C 39.839844 17.117188 39.308594 16.726562 38.757812 16.371094 C 38.207031 16.011719 37.632812 15.691406 37.042969 15.402344 C 36.449219 15.117188 35.84375 14.867188 35.222656 14.652344 C 34.597656 14.441406 33.964844 14.265625 33.324219 14.132812 C 32.679688 13.996094 32.03125 13.902344 31.375 13.847656 C 30.71875 13.789062 30.0625 13.773438 29.40625 13.800781 C 28.746094 13.824219 28.09375 13.890625 27.445312 13.996094 C 26.796875 14.101562 26.15625 14.246094 25.523438 14.429688 C 24.894531 14.613281 24.273438 14.835938 23.671875 15.09375 C 23.066406 15.351562 22.480469 15.648438 21.910156 15.980469 C 21.34375 16.3125 20.796875 16.675781 20.273438 17.074219 C 19.75 17.472656 19.253906 17.902344 18.785156 18.363281 C 18.3125 18.820312 17.871094 19.308594 17.460938 19.820312 C 17.050781 20.335938 16.671875 20.871094 16.328125 21.429688 C 15.980469 21.992188 15.671875 22.570312 15.398438 23.167969 C 15.125 23.765625 14.886719 24.378906 14.6875 25.003906 C 14.488281 25.632812 14.328125 26.269531 14.207031 26.914062 C 14.085938 27.558594 14.003906 28.210938 13.964844 28.867188 C 13.921875 29.523438 13.921875 30.179688 13.960938 30.835938 C 14 31.496094 14.082031 32.144531 14.199219 32.792969 C 14.320312 33.4375 14.476562 34.078125 14.675781 34.703125 C 14.871094 35.332031 15.109375 35.945312 15.378906 36.542969 C 15.652344 37.140625 15.960938 37.71875 16.304688 38.28125 C 16.648438 38.84375 17.027344 39.378906 17.4375 39.894531 C 17.84375 40.410156 18.285156 40.894531 18.753906 41.355469 C 19.222656 41.816406 19.71875 42.246094 20.242188 42.648438 C 20.765625 43.046875 21.308594 43.414062 21.875 43.746094 C 22.445312 44.078125 23.027344 44.375 23.632812 44.636719 C 24.238281 44.898438 24.855469 45.121094 25.484375 45.308594 C 26.117188 45.492188 26.753906 45.636719 27.40625 45.746094 C 28.054688 45.851562 28.707031 45.917969 29.363281 45.945312 C 30.019531 45.972656 30.675781 45.957031 31.332031 45.90625 C 31.988281 45.851562 32.636719 45.757812 33.28125 45.625 C 33.925781 45.492188 34.558594 45.320312 35.183594 45.105469 C 35.804688 44.894531 36.414062 44.648438 37.003906 44.363281 C 37.597656 44.078125 38.171875 43.753906 38.722656 43.398438 C 39.277344 43.042969 39.804688 42.65625 40.3125 42.234375 C 40.816406 41.8125 41.292969 41.363281 41.746094 40.882812 C 42.195312 40.40625 42.613281 39.898438 43.003906 39.367188 C 43.390625 38.835938 43.746094 38.285156 44.066406 37.710938 C 44.386719 37.136719 44.667969 36.542969 44.917969 35.933594 C 45.164062 35.324219 45.375 34.703125 45.546875 34.070312 C 45.71875 33.433594 45.851562 32.789062 45.941406 32.140625 C 46.035156 31.488281 46.089844 30.835938 46.101562 30.175781 C 46.113281 29.519531 46.085938 28.863281 46.015625 28.210938 C 45.949219 27.554688 45.839844 26.90625 45.695312 26.265625 C 45.546875 25.625 45.359375 24.996094 45.136719 24.378906 Z M 45.074219 24.371094 " fill-opacity="1" fill-rule="nonzero"/></svg>