<svg xmlns="http://www.w3.org/2000/svg" xmlns:xlink="http://www.w3.org/1999/xlink" width="80" zoomAndPan="magnify" viewBox="0 0 60 60" height="80" preserveAspectRatio="xMidYMid meet" version="1.0"><defs><clipPath id="856c1ad92a"><path d="M 25 9 L 55.714844 9 L 55.714844 51 L 25 51 Z M 25 9 " clip-rule="nonzero"/></clipPath><clipPath id="c061285347"><path d="M 27 51 L 31 51 L 31 54.75 L 27 54.75 Z M 27 51 " clip-rule="nonzero"/></clipPath><clipPath id="5e7eb16450"><path d="M 50 51 L 54 51 L 54 54.75 L 50 54.75 Z M 50 51 " clip-rule="nonzero"/></clipPath><clipPath id="dec7fb950d"><path d="M 4 22 L 22 22 L 22 54.75 L 4 54.75 Z M 4 22 " clip-rule="nonzero"/></clipPath></defs><path fill="#23c3dc" d="M 38.425781 28.988281 C 38.425781 29.433594 38.785156 29.792969 39.226562 29.792969 L 48.472656 29.792969 C 48.917969 29.792969 49.277344 29.433594 49.277344 28.988281 L 49.277344 25.773438 C 49.277344 25.328125 48.917969 24.96875 48.472656 24.96875 L 39.226562 24.96875 C 38.785156 24.96875 38.425781 25.328125 38.425781 25.773438 L 38.425781 26.675781 L 36.214844 26.675781 L 36.214844 28.082031 L 38.425781 28.082031 Z M 38.425781 28.988281 " fill-opacity="1" fill-rule="nonzero"/><g clip-path="url(#856c1ad92a)"><path fill="#23c3dc" d="M 54.429688 48.21875 L 54.429688 23.355469 C 54.433594 19.902344 52.875 16.777344 50.394531 14.539062 C 48.261719 12.613281 45.4375 11.332031 42.300781 11.007812 L 42.300781 9.964844 L 39.175781 9.964844 L 39.175781 11.007812 C 36.039062 11.332031 33.214844 12.613281 31.082031 14.539062 C 28.601562 16.777344 27.042969 19.902344 27.042969 23.355469 L 27.042969 27.039062 C 27.246094 27.035156 27.449219 27.03125 27.648438 27.019531 C 27.675781 27.019531 27.699219 27.019531 27.726562 27.019531 C 27.996094 27.019531 28.253906 27.082031 28.484375 27.1875 L 28.484375 23.355469 C 28.488281 20.34375 29.835938 17.609375 32.046875 15.609375 C 34.261719 13.613281 37.332031 12.367188 40.738281 12.367188 C 44.144531 12.367188 47.214844 13.613281 49.429688 15.609375 C 51.640625 17.609375 52.988281 20.34375 52.988281 23.355469 L 52.988281 48.21875 L 28.484375 48.21875 L 28.484375 30.453125 C 28.277344 30.550781 28.042969 30.613281 27.796875 30.621094 C 27.550781 30.632812 27.296875 30.640625 27.042969 30.644531 L 27.046875 48.21875 L 25.484375 48.21875 L 25.484375 50.203125 L 55.992188 50.203125 L 55.992188 48.21875 Z M 54.429688 48.21875 " fill-opacity="1" fill-rule="nonzero"/></g><g clip-path="url(#c061285347)"><path fill="#23c3dc" d="M 30.796875 53.023438 C 30.796875 53.230469 30.757812 53.429688 30.679688 53.621094 C 30.601562 53.8125 30.488281 53.980469 30.339844 54.128906 C 30.195312 54.273438 30.027344 54.386719 29.835938 54.46875 C 29.644531 54.546875 29.445312 54.585938 29.238281 54.585938 C 29.03125 54.585938 28.832031 54.546875 28.640625 54.46875 C 28.449219 54.386719 28.28125 54.273438 28.132812 54.128906 C 27.988281 53.980469 27.875 53.8125 27.792969 53.621094 C 27.714844 53.429688 27.675781 53.230469 27.675781 53.023438 C 27.675781 52.816406 27.714844 52.617188 27.792969 52.425781 C 27.875 52.234375 27.988281 52.066406 28.132812 51.921875 C 28.28125 51.773438 28.449219 51.660156 28.640625 51.582031 C 28.832031 51.503906 29.03125 51.464844 29.238281 51.464844 C 29.445312 51.464844 29.644531 51.503906 29.835938 51.582031 C 30.027344 51.660156 30.195312 51.773438 30.339844 51.921875 C 30.488281 52.066406 30.601562 52.234375 30.679688 52.425781 C 30.757812 52.617188 30.796875 52.816406 30.796875 53.023438 Z M 30.796875 53.023438 " fill-opacity="1" fill-rule="nonzero"/></g><g clip-path="url(#5e7eb16450)"><path fill="#23c3dc" d="M 53.800781 53.023438 C 53.800781 53.230469 53.761719 53.429688 53.683594 53.621094 C 53.601562 53.8125 53.488281 53.984375 53.34375 54.128906 C 53.195312 54.273438 53.027344 54.386719 52.835938 54.46875 C 52.644531 54.546875 52.445312 54.585938 52.238281 54.585938 C 52.03125 54.585938 51.832031 54.546875 51.640625 54.46875 C 51.449219 54.386719 51.28125 54.273438 51.136719 54.128906 C 50.988281 53.984375 50.875 53.8125 50.796875 53.621094 C 50.71875 53.429688 50.679688 53.230469 50.679688 53.023438 C 50.679688 52.816406 50.71875 52.617188 50.796875 52.425781 C 50.875 52.234375 50.988281 52.066406 51.136719 51.921875 C 51.28125 51.773438 51.449219 51.660156 51.640625 51.582031 C 51.832031 51.503906 52.03125 51.464844 52.238281 51.464844 C 52.445312 51.464844 52.644531 51.503906 52.835938 51.582031 C 53.027344 51.660156 53.195312 51.773438 53.34375 51.921875 C 53.488281 52.066406 53.601562 52.234375 53.683594 52.425781 C 53.761719 52.617188 53.800781 52.816406 53.800781 53.023438 Z M 53.800781 53.023438 " fill-opacity="1" fill-rule="nonzero"/></g><path fill="#23c3dc" d="M 42.179688 7.441406 C 42.179688 7.632812 42.144531 7.816406 42.070312 7.992188 C 41.996094 8.167969 41.890625 8.324219 41.757812 8.460938 C 41.621094 8.597656 41.464844 8.699219 41.289062 8.773438 C 41.113281 8.847656 40.929688 8.882812 40.738281 8.882812 C 40.546875 8.882812 40.363281 8.847656 40.1875 8.773438 C 40.011719 8.699219 39.855469 8.597656 39.71875 8.460938 C 39.582031 8.324219 39.480469 8.167969 39.40625 7.992188 C 39.332031 7.816406 39.296875 7.632812 39.296875 7.441406 C 39.296875 7.25 39.332031 7.066406 39.40625 6.890625 C 39.480469 6.714844 39.582031 6.558594 39.71875 6.421875 C 39.855469 6.285156 40.011719 6.183594 40.1875 6.109375 C 40.363281 6.035156 40.546875 6 40.738281 6 C 40.929688 6 41.113281 6.035156 41.289062 6.109375 C 41.464844 6.183594 41.621094 6.285156 41.757812 6.421875 C 41.890625 6.558594 41.996094 6.714844 42.070312 6.890625 C 42.144531 7.066406 42.179688 7.25 42.179688 7.441406 Z M 42.179688 7.441406 " fill-opacity="1" fill-rule="nonzero"/><path fill="#23c3dc" d="M 31.007812 47.378906 L 50.46875 47.378906 C 51.0625 47.378906 51.546875 46.894531 51.546875 46.296875 L 51.546875 40.714844 C 51.546875 40.117188 51.0625 39.632812 50.46875 39.632812 L 31.007812 39.632812 C 30.410156 39.632812 29.929688 40.117188 29.929688 40.714844 L 29.929688 46.296875 C 29.929688 46.894531 30.410156 47.378906 31.007812 47.378906 Z M 42.480469 45.578125 L 38.996094 45.578125 C 38.199219 45.578125 37.554688 44.933594 37.554688 44.136719 L 37.554688 43.054688 L 38.277344 43.054688 L 38.277344 44.136719 C 38.277344 44.535156 38.597656 44.855469 38.996094 44.855469 L 42.480469 44.855469 C 42.878906 44.855469 43.199219 44.535156 43.199219 44.136719 L 43.199219 43.054688 L 43.921875 43.054688 L 43.921875 44.136719 C 43.921875 44.933594 43.277344 45.578125 42.480469 45.578125 Z M 30.875 41.523438 L 50.601562 41.523438 L 50.601562 41.882812 L 48.507812 41.882812 L 48.507812 43.191406 L 47.5625 43.191406 L 47.5625 41.882812 L 33.914062 41.882812 L 33.914062 43.191406 L 32.96875 43.191406 L 32.96875 41.882812 L 30.875 41.882812 Z M 30.875 41.523438 " fill-opacity="1" fill-rule="nonzero"/><path fill="#23c3dc" d="M 31.007812 38.730469 L 50.46875 38.730469 C 51.0625 38.730469 51.546875 38.246094 51.546875 37.648438 L 51.546875 32.066406 C 51.546875 31.46875 51.0625 30.984375 50.46875 30.984375 L 31.007812 30.984375 C 30.410156 30.984375 29.929688 31.46875 29.929688 32.066406 L 29.929688 37.648438 C 29.929688 38.246094 30.410156 38.730469 31.007812 38.730469 Z M 42.480469 36.929688 L 38.996094 36.929688 C 38.199219 36.929688 37.554688 36.285156 37.554688 35.488281 L 37.554688 34.40625 L 38.277344 34.40625 L 38.277344 35.488281 C 38.277344 35.886719 38.597656 36.207031 38.996094 36.207031 L 42.480469 36.207031 C 42.878906 36.207031 43.199219 35.886719 43.199219 35.488281 L 43.199219 34.40625 L 43.921875 34.40625 L 43.921875 35.488281 C 43.921875 36.285156 43.277344 36.929688 42.480469 36.929688 Z M 30.875 32.875 L 50.601562 32.875 L 50.601562 33.234375 L 48.507812 33.234375 L 48.507812 34.542969 L 47.5625 34.542969 L 47.5625 33.234375 L 33.914062 33.234375 L 33.914062 34.542969 L 32.96875 34.542969 L 32.96875 33.234375 L 30.875 33.234375 Z M 30.875 32.875 " fill-opacity="1" fill-rule="nonzero"/><path fill="#23c3dc" d="M 15.105469 22.003906 C 17.285156 22.511719 19.464844 21.15625 19.972656 18.976562 C 20.1875 18.039062 20.0625 17.105469 19.675781 16.300781 C 19.277344 16.039062 18.109375 15.339844 16.550781 15.03125 C 15.183594 14.761719 13.980469 14.882812 13.386719 14.976562 C 12.753906 15.519531 12.28125 16.261719 12.078125 17.136719 C 11.570312 19.316406 12.925781 21.496094 15.105469 22.003906 Z M 15.105469 22.003906 " fill-opacity="1" fill-rule="nonzero"/><g clip-path="url(#dec7fb950d)"><path fill="#23c3dc" d="M 12.605469 24.835938 C 12.941406 24.339844 13.496094 24.046875 14.09375 24.046875 C 14.457031 24.046875 14.808594 24.15625 15.109375 24.359375 C 15.140625 24.382812 15.179688 24.402344 15.230469 24.433594 C 15.332031 24.496094 15.503906 24.597656 15.742188 24.722656 C 15.972656 24.84375 16.285156 24.996094 16.667969 25.164062 C 16.570312 24.167969 16.105469 23.292969 15.277344 22.9375 C 13.816406 22.320312 11.484375 22.792969 10.171875 25.253906 C 8.390625 28.652344 7.757812 30.945312 7.589844 34.972656 C 7.632812 36.265625 8.023438 37.109375 8.589844 37.667969 C 8.613281 37.800781 8.648438 37.933594 8.703125 38.066406 L 8.699219 38.066406 C 8.703125 38.066406 8.703125 38.066406 8.703125 38.066406 C 8.707031 38.074219 8.726562 38.136719 8.765625 38.257812 C 8.882812 38.652344 9.125 39.628906 9.125 40.988281 C 9.105469 43.394531 8.429688 46.964844 4.8125 51.0625 C 3.984375 51.992188 4.066406 53.417969 5 54.242188 C 5.425781 54.625 5.960938 54.8125 6.492188 54.8125 C 7.113281 54.8125 7.734375 54.554688 8.179688 54.054688 C 11.859375 49.933594 13.222656 45.832031 13.546875 42.648438 C 13.601562 42.742188 13.660156 42.835938 13.714844 42.933594 C 14.957031 45.089844 16.195312 48.25 16.625 52.738281 C 16.734375 53.902344 17.714844 54.777344 18.863281 54.777344 C 18.933594 54.777344 19.007812 54.773438 19.078125 54.765625 C 20.320312 54.648438 21.226562 53.546875 21.109375 52.308594 C 20.535156 46.273438 18.617188 42.046875 16.777344 39.339844 C 15.675781 37.714844 14.613281 36.636719 13.898438 36.003906 C 14.058594 33.511719 15.007812 30.863281 15.808594 28.71875 C 14.097656 28.023438 13.164062 27.394531 13.078125 27.335938 C 12.257812 26.777344 12.046875 25.65625 12.605469 24.835938 Z M 12.605469 24.835938 " fill-opacity="1" fill-rule="nonzero"/></g><path fill="#23c3dc" d="M 29.164062 28.761719 C 29.132812 27.96875 28.460938 27.347656 27.664062 27.382812 C 27.238281 27.398438 26.820312 27.40625 26.410156 27.40625 C 22.636719 27.40625 19.726562 26.691406 17.773438 25.992188 C 16.792969 25.640625 16.058594 25.292969 15.574219 25.039062 C 15.332031 24.914062 15.15625 24.8125 15.042969 24.742188 C 14.988281 24.710938 14.949219 24.683594 14.925781 24.671875 C 14.914062 24.664062 14.910156 24.660156 14.90625 24.65625 C 14.246094 24.210938 13.351562 24.378906 12.902344 25.039062 C 12.453125 25.695312 12.625 26.59375 13.28125 27.039062 C 13.441406 27.148438 18.125 30.289062 26.410156 30.289062 C 26.859375 30.289062 27.316406 30.28125 27.785156 30.261719 C 28.578125 30.230469 29.199219 29.558594 29.164062 28.761719 Z M 29.164062 28.761719 " fill-opacity="1" fill-rule="nonzero"/><path fill="#23c3dc" d="M 16.625 14.65625 C 18.566406 15.039062 19.902344 16.03125 19.902344 16.03125 L 20.527344 12.871094 L 20.601562 12.496094 L 13.769531 11.144531 L 13.070312 14.679688 C 13.070312 14.679688 14.679688 14.269531 16.625 14.65625 Z M 16.625 14.65625 " fill-opacity="1" fill-rule="nonzero"/></svg>