<svg xmlns="http://www.w3.org/2000/svg" xmlns:xlink="http://www.w3.org/1999/xlink" width="80" zoomAndPan="magnify" viewBox="0 0 60 60" height="80" preserveAspectRatio="xMidYMid meet" version="1.0"><defs><clipPath id="ca6d851425"><path d="M 7.898438 4 L 52 4 L 52 56.707031 L 7.898438 56.707031 Z M 7.898438 4 " clip-rule="nonzero"/></clipPath></defs><g clip-path="url(#ca6d851425)"><path fill="#37520b" d="M 29.171875 56.113281 C 28.171875 56.226562 27.421875 55.59375 27.441406 54.597656 C 27.28125 54.183594 26.460938 54.671875 26.058594 54.585938 C 24.316406 54.882812 22.546875 54.765625 20.800781 54.550781 C 20.058594 54.277344 19.378906 55.679688 19.027344 54.515625 C 17.554688 54.921875 16.800781 52.871094 18.042969 52.117188 C 18.859375 51.820312 18.46875 53.691406 19.585938 52.921875 C 21.148438 52.113281 21.222656 50.191406 21.902344 48.777344 C 22.359375 47.679688 23.871094 47.28125 23.648438 46.058594 C 24.773438 45.472656 26.167969 46.058594 27.398438 46 C 28.53125 46.195312 29.289062 45.347656 30.5 45.675781 C 31.683594 45.648438 32.851562 45.933594 33.839844 46.59375 C 35.625 47.527344 37.867188 47.382812 39.640625 46.488281 C 40.414062 45.671875 42.65625 46.671875 41.523438 47.578125 C 40.996094 46.164062 39.558594 47.261719 38.585938 47.640625 C 36.488281 48.414062 34.25 47.5625 32.414062 46.519531 C 31.335938 46.207031 32.714844 47.5625 33.242188 47.410156 C 34.285156 47.996094 35.003906 49.066406 34.894531 50.296875 C 35.035156 51.289062 34.808594 53.027344 36.203125 53.105469 C 36.933594 53.375 37.214844 53.882812 37.457031 53.011719 C 38.039062 53.195312 37.664062 54.390625 38.359375 54.207031 C 39.617188 54.179688 40.898438 53.933594 42.144531 54.152344 C 41.710938 55.054688 40.277344 54.253906 39.453125 54.664062 C 39.136719 54.726562 38.25 54.832031 39.054688 54.808594 C 39.742188 54.863281 40.5 54.710938 41.121094 55.023438 C 40.207031 55.589844 38.820312 55.191406 37.726562 55.210938 C 36.671875 55.097656 38.375 54.5625 37.308594 54.785156 C 36.15625 54.914062 34.640625 55.195312 33.914062 54.023438 C 32.808594 52.523438 32.644531 50.621094 32.449219 48.835938 C 32.335938 47.671875 31.355469 46.632812 30.125 46.835938 C 29.703125 46.84375 29.144531 46.707031 29.304688 47.324219 C 29.1875 48.976562 29.222656 50.679688 28.714844 52.261719 C 28.574219 53.40625 29.269531 54.480469 29.285156 55.4375 C 30.429688 55.671875 31.722656 55.285156 32.785156 55.773438 C 32.257812 56.515625 30.804688 56.035156 29.902344 56.152344 C 29.660156 56.144531 29.414062 56.136719 29.171875 56.113281 Z M 27.402344 53.234375 C 27.527344 52.058594 27.347656 50.832031 27.671875 49.6875 C 28.453125 49.375 27.304688 48.558594 27.683594 47.847656 C 27.488281 46.230469 25.808594 47.445312 25.09375 48.003906 C 23.945312 48.84375 23.253906 50.121094 22.78125 51.429688 C 22.355469 52.394531 21.558594 53.097656 20.832031 53.828125 C 23.007812 53.878906 25.183594 53.953125 27.359375 53.941406 Z M 18.890625 53.640625 C 18.476562 52.859375 17.746094 54.242188 18.890625 53.640625 Z M 21.605469 52.367188 C 22.300781 51.015625 19.441406 53.832031 20.589844 53.207031 C 20.957031 52.96875 21.332031 52.714844 21.605469 52.367188 Z M 34.464844 49.503906 C 34.433594 48.226562 33.765625 49.542969 34.289062 50.011719 C 34.46875 49.933594 34.441406 49.660156 34.464844 49.503906 Z M 20.457031 50.089844 C 21.203125 49.863281 20.773438 50.457031 20.457031 50.089844 Z M 21.472656 47.574219 C 20.414062 47.007812 18.894531 47.6875 18.046875 46.6875 C 17.015625 46.121094 16.554688 44.511719 15.097656 45.25 C 14.171875 46.042969 12.859375 45.664062 11.753906 45.5 C 10.875 45.167969 10.113281 44.449219 10.457031 43.457031 C 9.175781 43.523438 8.71875 42.308594 7.90625 41.699219 C 9.007812 40.570312 9.457031 38.964844 10.1875 37.585938 C 10.683594 36.609375 11.152344 35.613281 11.382812 34.535156 C 12.421875 32.296875 13.160156 29.917969 13.816406 27.542969 C 14.085938 26.25 15.679688 26.5 16.675781 26.296875 C 17.722656 25.992188 19.226562 26.542969 19.960938 25.722656 C 20.488281 23.921875 20.226562 22.007812 20.417969 20.160156 C 20.320312 19.066406 20.898438 18.222656 21.359375 17.203125 C 22.574219 15.5 22.652344 13.339844 22.820312 11.332031 C 22.734375 10.457031 21.734375 9.578125 22.949219 9.078125 C 23.027344 8.515625 22.9375 7.945312 22.925781 7.378906 C 23.46875 7.488281 24.488281 7.269531 24.578125 7.980469 C 24.140625 8.988281 25.0625 9.925781 24.542969 10.988281 C 24.550781 12.523438 24.503906 14.109375 24.914062 15.601562 C 25.238281 16.660156 26.148438 17.574219 26.167969 18.675781 C 25.75 18.527344 25.25 17.894531 25.472656 18.945312 C 25.304688 19.578125 26 20.132812 25.90625 19.191406 C 25 18.40625 27.359375 19.113281 26.390625 19.769531 C 26.636719 20.335938 26.652344 20.96875 25.976562 21.285156 C 26.5 21.855469 26.210938 22.804688 26.269531 23.527344 C 26.730469 24.324219 25.714844 26.316406 27.335938 25.738281 C 28.582031 25.507812 30.050781 25.652344 31.03125 24.722656 C 31.910156 23.976562 31.714844 22.40625 31.796875 21.308594 C 30.730469 21.292969 30.140625 20.402344 29.65625 19.636719 C 28.785156 19.347656 26.722656 19.894531 27.078125 18.382812 C 27.390625 15.773438 27.871094 13.183594 28.222656 10.578125 C 28.660156 8.800781 28.722656 6.933594 29.117188 5.136719 C 29.023438 3.449219 30.875 4.554688 31.863281 4.371094 C 34.476562 4.527344 37.097656 4.4375 39.707031 4.539062 C 40.753906 4.492188 39.996094 5.183594 40.035156 5.578125 C 40.964844 5.902344 40.15625 7.675781 39.878906 8.457031 C 39.675781 9.957031 39.710938 11.492188 39.371094 12.984375 C 39.183594 14.34375 38.691406 15.632812 38.367188 16.953125 C 38.035156 17.992188 38.84375 20.320312 37.265625 20.28125 C 36.167969 20.402344 34.976562 20.101562 33.941406 20.515625 C 32.96875 20.832031 32.007812 21.359375 32.277344 22.597656 C 32.144531 23.703125 32.300781 24.730469 33.039062 25.554688 C 34.109375 25.980469 35.34375 25.703125 36.476562 25.84375 C 37.765625 25.878906 39.046875 26.058594 40.320312 26.179688 C 40.910156 25.484375 40.835938 24.023438 39.949219 23.503906 C 38.691406 23.039062 38.152344 21.730469 38.484375 20.476562 C 38.648438 19.425781 38.5625 17.65625 40.078125 17.738281 C 41.394531 17.605469 42.804688 17.40625 44.011719 18.097656 C 44.496094 18.191406 44.714844 18.464844 44.59375 18.960938 C 44.535156 20.066406 44.769531 21.234375 44.339844 22.28125 C 43.9375 23.601562 42.25 23.210938 41.714844 24.253906 C 40.945312 24.695312 41.546875 25.640625 41.746094 26.136719 C 43.101562 26.113281 44.433594 26.539062 45.785156 26.65625 C 46.835938 26.925781 48.132812 26.589844 48.976562 27.394531 C 49.601562 28.449219 49.339844 29.773438 49.5625 30.941406 C 49.832031 33.117188 49.859375 35.339844 50.40625 37.46875 C 50.707031 38.527344 51.027344 39.59375 51.59375 40.539062 C 52.101562 41.882812 49.832031 41.832031 50.363281 43.070312 C 50.679688 44.648438 48.617188 44.261719 47.878906 44.988281 C 46.710938 45.183594 47.222656 46.957031 45.917969 46.796875 C 44.855469 47.902344 43.46875 47.527344 42.472656 46.527344 C 41.890625 46.382812 41.441406 45.175781 42.378906 45.789062 C 43.351562 46.28125 44.714844 47.367188 45.628906 46.183594 C 45.890625 45.871094 46.375 45.648438 46.21875 45.171875 C 46.195312 43.488281 46.023438 41.792969 46.15625 40.113281 C 46.550781 41.648438 46.394531 43.332031 46.679688 44.910156 C 47.527344 44.019531 48.914062 44.121094 49.746094 43.324219 C 49.273438 41.527344 49.316406 39.632812 48.960938 37.808594 C 48.785156 36 48.429688 34.191406 48.492188 32.375 C 49.109375 32.863281 48.875 34.625 49.199219 35.597656 C 49.558594 37.5 49.644531 39.480469 50.296875 41.3125 C 51.253906 41.585938 50.582031 39.726562 50.351562 39.148438 C 49.699219 36.703125 49.417969 34.1875 49.101562 31.683594 C 48.875 30.476562 48.667969 29.253906 48.5625 28.039062 C 47.617188 27.578125 46.417969 27.644531 45.363281 27.589844 C 43.515625 28.042969 41.585938 28.011719 39.695312 27.882812 C 38.339844 27.4375 40.527344 27.175781 40.992188 27.285156 C 42.140625 27.121094 43.25 27.621094 44.382812 27.382812 C 44.949219 27.097656 42.980469 26.957031 42.570312 26.78125 C 41.445312 26.621094 40.40625 26.972656 39.25 26.683594 C 37.765625 26.664062 36.28125 26.554688 34.804688 26.441406 C 35.101562 27.59375 36.644531 26.765625 37.421875 27.210938 C 36.710938 27.773438 35.207031 27.515625 34.1875 27.65625 C 31.636719 27.777344 29.074219 27.722656 26.535156 28.03125 C 25.550781 28.308594 27.457031 28.164062 27.761719 28.484375 C 32.761719 28.734375 37.773438 28.578125 42.777344 28.6875 C 44.117188 28.648438 45.453125 28.414062 46.789062 28.371094 C 46.957031 29.433594 44.992188 28.835938 44.230469 29.113281 C 41.898438 29.363281 39.550781 29.160156 37.210938 29.214844 C 33.941406 29.1875 30.675781 29.28125 27.410156 29.214844 C 24.871094 29.128906 22.347656 28.867188 19.824219 28.625 C 18.925781 29.027344 18.46875 27.769531 19.496094 27.835938 C 20.65625 27.65625 19.621094 26.296875 18.78125 26.804688 C 17.515625 26.953125 16.230469 27.019531 14.996094 27.332031 C 14.160156 28.066406 14.464844 29.429688 13.777344 30.3125 C 12.910156 32.644531 12.027344 34.976562 10.960938 37.226562 C 10.355469 38.710938 9.695312 40.171875 8.90625 41.570312 C 9.285156 42.078125 9.800781 43.109375 10.53125 42.535156 C 11.078125 41.390625 11.230469 40.074219 11.578125 38.851562 C 11.929688 37.578125 12.042969 36.238281 12.457031 34.984375 C 13.105469 34.972656 12.34375 36.632812 12.402344 37.226562 C 12.195312 38.917969 11.378906 40.488281 11.441406 42.214844 C 10.953125 43.238281 11.023438 45.023438 12.613281 44.878906 C 14.015625 45.007812 15.433594 43.933594 16.789062 44.601562 C 17.816406 45.257812 18.566406 46.488281 19.90625 46.546875 C 20.523438 46.875 22.378906 46.632812 22.207031 47.5 C 22.042969 47.808594 21.703125 47.894531 21.472656 47.574219 Z M 28.226562 27.394531 C 29.261719 26.042969 27.011719 26.011719 26.375 26.550781 C 26.003906 27.5 27.734375 27.785156 28.226562 27.394531 Z M 22.21875 27.015625 C 21.792969 25.808594 20.199219 27.835938 21.902344 27.414062 C 22.109375 27.421875 22.253906 27.207031 22.21875 27.015625 Z M 23.023438 27.03125 C 22.519531 25.546875 22.542969 28.484375 23.023438 27.03125 Z M 29.371094 27.027344 C 28.464844 26.511719 29.09375 27.835938 29.371094 27.027344 Z M 31.949219 26.609375 C 31.402344 25.914062 30.058594 26.457031 29.273438 26.183594 C 29.710938 26.867188 31.71875 27.519531 31.949219 26.609375 Z M 33.144531 26.828125 C 33.40625 25.980469 31.679688 26.230469 32.46875 26.984375 C 32.699219 26.945312 32.90625 26.828125 33.144531 26.828125 Z M 22.667969 25.824219 C 23.019531 25.742188 23.691406 25.988281 23.824219 25.683594 C 23.820312 23.9375 23.929688 22.179688 23.761719 20.445312 C 23.027344 20.195312 20.621094 20.527344 21.492188 19.261719 C 21.984375 18.699219 21.695312 17.601562 21.246094 18.746094 C 20.894531 19.324219 20.65625 19.988281 21.078125 20.425781 C 20.582031 21.769531 20.699219 23.253906 20.613281 24.667969 L 20.566406 26.082031 C 21.242188 25.859375 21.960938 25.828125 22.667969 25.824219 Z M 31.691406 25.417969 C 30.996094 24.59375 30.84375 26.210938 31.691406 25.417969 Z M 25.507812 23.15625 C 25.234375 22.839844 25.660156 21.316406 25.128906 21.003906 C 25.023438 21.699219 23.550781 22.0625 24.640625 22.511719 C 24.195312 21.761719 25.414062 21.960938 24.867188 22.636719 C 24.714844 23.398438 25.046875 24.15625 25.136719 24.914062 C 25.214844 24.324219 25.136719 23.65625 25.507812 23.15625 Z M 41.523438 23.84375 C 41.019531 22.976562 40.785156 24.867188 41.523438 23.84375 Z M 43.492188 22.363281 C 44.171875 21.566406 44.0625 20.449219 44.21875 19.472656 C 42.824219 19.4375 41.417969 19.558594 40.039062 19.359375 C 38.941406 18.105469 39.050781 20.351562 39.011719 21.089844 C 38.90625 22.40625 40.335938 23.109375 41.480469 22.976562 C 42.171875 22.945312 42.957031 22.851562 43.488281 22.363281 Z M 33.269531 20.164062 C 33.757812 19.835938 32.203125 20.324219 31.867188 20.175781 C 31.144531 19.988281 30.613281 20.613281 31.652344 20.53125 C 32.203125 20.5 32.777344 20.429688 33.269531 20.164062 Z M 33.273438 19.109375 C 33.957031 18.878906 34.472656 19.882812 35.34375 19.570312 C 36.058594 19.574219 36.777344 19.570312 37.492188 19.570312 C 38.160156 15.148438 38.644531 10.699219 39.363281 6.285156 C 40.0625 4.894531 38.179688 5.136719 37.347656 5.144531 C 35.789062 5.3125 34.21875 5.332031 32.667969 5.078125 C 31.722656 5.113281 30.300781 4.671875 29.691406 5.582031 C 28.699219 9.558594 28.410156 13.664062 27.722656 17.695312 C 27.25 18.886719 28.117188 19.109375 29.113281 18.957031 C 29.898438 19.480469 30.773438 18.289062 31.203125 19.320312 C 31.824219 19.683594 32.648438 19.308594 33.273438 19.109375 Z M 32.734375 16.347656 C 33.53125 15.386719 33.292969 17.25 32.734375 16.347656 Z M 31.085938 16.042969 C 31.589844 14.964844 31.480469 17.082031 31.085938 16.042969 Z M 33.355469 15.085938 C 33.792969 14.179688 34.59375 15.503906 33.527344 15.320312 C 33.425781 15.304688 33.304688 15.203125 33.355469 15.085938 Z M 30.078125 14.828125 C 30.15625 13.699219 32.945312 15.054688 31.1875 15.132812 C 30.867188 15.089844 30.183594 15.265625 30.078125 14.828125 Z M 32.566406 14.375 C 31.558594 14.441406 30.289062 13.992188 29.703125 13.46875 C 29.988281 11.890625 31.605469 12.253906 32.710938 12.597656 C 33.757812 12.941406 34.871094 12.929688 35.953125 13.058594 C 37.359375 13.597656 34.25 13.597656 35.675781 14.183594 C 35.144531 14.835938 33.632812 14.238281 32.738281 14.378906 Z M 34.515625 13.75 C 33.699219 13.207031 32.632812 13.109375 31.675781 12.914062 C 31.128906 12.605469 29.851562 13.125 30.957031 13.476562 C 32.109375 13.699219 33.324219 13.871094 34.472656 13.800781 Z M 32.800781 11.300781 C 31.769531 10.972656 30.128906 10.886719 30.089844 9.46875 C 29.867188 8.925781 30.75 7.207031 30.773438 8.511719 C 30.089844 9.820312 31.683594 10.652344 32.773438 10.71875 C 34.25 11.03125 36.167969 10.503906 36.617188 8.898438 C 36.902344 7.710938 35.535156 7.023438 34.601562 6.734375 C 33.503906 6.667969 32.097656 6.527344 31.394531 7.570312 C 30.351562 8.292969 31.332031 6.363281 32.015625 6.472656 C 33.835938 5.535156 36.398438 6.324219 37.253906 8.203125 C 37.648438 9.613281 36.210938 10.710938 35.042969 11.148438 C 34.332031 11.410156 33.535156 11.519531 32.800781 11.300781 Z M 32.902344 9.492188 C 33.445312 8.679688 33.375 10.277344 32.902344 9.492188 Z M 35.320312 8.394531 C 35.777344 7.652344 35.910156 8.78125 35.320312 8.394531 Z M 24.636719 18.957031 C 24.21875 17.945312 24.46875 20.105469 24.636719 18.957031 Z M 23.941406 18.953125 C 24.15625 18.121094 22.582031 17.957031 23.371094 18.652344 C 23.402344 19.011719 23.613281 19.429688 23.941406 18.953125 Z M 22.722656 18.765625 C 21.824219 18.066406 22.4375 19.5 22.722656 18.765625 Z M 43.320312 18.695312 C 42.9375 17.859375 41.019531 18.070312 40.210938 18.488281 C 40.6875 19.25 42.292969 18.769531 43.175781 18.753906 Z M 22.882812 17.738281 C 23.070312 17.480469 22.964844 15.78125 22.542969 16.589844 C 21.839844 17.105469 21.726562 18.921875 22.882812 17.738281 Z M 24.636719 16.03125 C 24.082031 15.628906 24.144531 16.78125 24.636719 16.03125 Z M 23.300781 14.683594 C 23.402344 13.980469 23.585938 12.996094 23.25 12.425781 C 23.054688 13.054688 22.628906 14.960938 23.167969 15.003906 L 23.242188 14.859375 Z M 24.441406 13.9375 C 24.214844 13.308594 23.472656 13.207031 24.070312 13.980469 C 24.199219 14.320312 24.796875 14.535156 24.441406 13.9375 Z M 38.949219 13.929688 C 38.371094 13.199219 38.753906 14.5625 38.949219 13.929688 Z M 24.003906 11.359375 C 23.902344 10.875 24.496094 9.640625 23.785156 10.484375 C 22.550781 10.355469 23.550781 12.894531 24.015625 11.507812 Z M 24.03125 9.6875 C 23.496094 8.917969 22.183594 10.253906 23.480469 10.136719 C 23.699219 10.070312 24 9.949219 24.03125 9.6875 Z M 23.832031 8.371094 C 23.429688 7.648438 23.449219 9.339844 23.832031 8.371094 Z M 42.867188 44.820312 C 42.902344 44.332031 42.382812 42.824219 42.382812 44.113281 C 42.480469 44.714844 42.011719 45.367188 42.050781 44.328125 C 41.953125 42.972656 41.992188 41.605469 41.945312 40.25 C 42.507812 40.078125 42.347656 41.394531 42.472656 41.882812 C 42.53125 42.660156 42.519531 41.644531 42.539062 41.367188 C 42.46875 40.765625 42.742188 39.519531 42.882812 40.78125 C 43.101562 42.40625 43.042969 44.066406 43.328125 45.679688 C 43.011719 46.027344 42.921875 44.992188 42.867188 44.820312 Z M 41.96875 33.832031 C 42.097656 33.132812 41.5 31.722656 41.96875 31.394531 C 42.277344 32.179688 42.652344 33.695312 42.113281 34.25 C 42 34.144531 41.976562 33.980469 41.96875 33.832031 Z M 28.0625 28.25 C 28.605469 27.5 28.449219 28.726562 28.0625 28.25 Z M 28.0625 28.25 " fill-opacity="1" fill-rule="nonzero"/></g></svg>