<svg xmlns="http://www.w3.org/2000/svg" xmlns:xlink="http://www.w3.org/1999/xlink" width="80" zoomAndPan="magnify" viewBox="0 0 60 60" height="80" preserveAspectRatio="xMidYMid meet" version="1.0"><defs><clipPath id="b160d38c30"><path d="M 6.171875 37 L 15 37 L 15 54 L 6.171875 54 Z M 6.171875 37 " clip-rule="nonzero"/></clipPath></defs><rect x="-6" width="72" fill="#ffffff" y="-6" height="72" fill-opacity="1"/><rect x="-6" width="72" fill="#ffffff" y="-6" height="72" fill-opacity="1"/><path fill="#edce6f" d="M 50.488281 28.863281 C 50.183594 28.863281 49.945312 28.625 49.945312 28.320312 C 49.945312 18.90625 42.289062 11.25 32.875 11.25 C 23.460938 11.25 15.804688 18.90625 15.804688 28.320312 C 15.804688 28.625 15.566406 28.863281 15.261719 28.863281 C 14.957031 28.863281 14.71875 28.625 14.71875 28.320312 C 14.71875 18.308594 22.863281 10.164062 32.875 10.164062 C 42.886719 10.164062 51.03125 18.308594 51.03125 28.320312 C 51.03125 28.625 50.792969 28.863281 50.488281 28.863281 Z M 50.488281 28.863281 " fill-opacity="1" fill-rule="nonzero"/><path fill="#edce6f" d="M 34.894531 11.371094 C 34.773438 11.371094 34.65625 11.328125 34.546875 11.25 C 34.320312 11.066406 34.277344 10.71875 34.472656 10.492188 C 34.765625 10.121094 34.9375 9.664062 34.9375 9.1875 C 34.9375 8.046875 34.015625 7.125 32.875 7.125 C 31.734375 7.125 30.8125 8.046875 30.8125 9.1875 C 30.8125 9.664062 30.972656 10.121094 31.277344 10.492188 C 31.472656 10.71875 31.429688 11.066406 31.203125 11.25 C 30.972656 11.445312 30.628906 11.402344 30.441406 11.175781 C 29.984375 10.621094 29.738281 9.914062 29.738281 9.1875 C 29.738281 7.449219 31.148438 6.039062 32.886719 6.039062 C 34.625 6.039062 36.035156 7.449219 36.035156 9.1875 C 36.035156 9.914062 35.785156 10.621094 35.328125 11.175781 C 35.210938 11.304688 35.058594 11.371094 34.894531 11.371094 Z M 34.894531 11.371094 " fill-opacity="1" fill-rule="nonzero"/><path fill="#edce6f" d="M 51.945312 31.863281 L 13.816406 31.863281 C 12.6875 31.863281 11.773438 30.949219 11.773438 29.820312 C 11.773438 28.691406 12.6875 27.777344 13.816406 27.777344 L 51.953125 27.777344 C 53.082031 27.777344 53.996094 28.691406 53.996094 29.820312 C 53.984375 30.949219 53.074219 31.863281 51.945312 31.863281 Z M 13.816406 28.863281 C 13.296875 28.863281 12.859375 29.289062 12.859375 29.820312 C 12.859375 30.339844 13.285156 30.777344 13.816406 30.777344 L 51.953125 30.777344 C 52.476562 30.777344 52.910156 30.351562 52.910156 29.820312 C 52.910156 29.289062 52.488281 28.863281 51.953125 28.863281 Z M 13.816406 28.863281 " fill-opacity="1" fill-rule="nonzero"/><path fill="#edce6f" d="M 19.660156 22.792969 C 19.582031 22.792969 19.519531 22.78125 19.441406 22.75 C 19.171875 22.632812 19.039062 22.316406 19.160156 22.035156 C 21.515625 16.496094 25.925781 14.941406 26.109375 14.878906 C 26.390625 14.78125 26.707031 14.933594 26.792969 15.214844 C 26.890625 15.496094 26.738281 15.800781 26.457031 15.898438 C 26.402344 15.921875 22.308594 17.386719 20.148438 22.457031 C 20.0625 22.664062 19.867188 22.792969 19.660156 22.792969 Z M 19.660156 22.792969 " fill-opacity="1" fill-rule="nonzero"/><path fill="#edce6f" d="M 14.195312 50.886719 C 14.011719 50.886719 13.828125 50.789062 13.71875 50.617188 C 13.566406 50.355469 13.664062 50.019531 13.925781 49.875 L 16.25 48.574219 C 17.445312 47.902344 18.789062 47.53125 20.160156 47.488281 L 33.191406 47.109375 L 33.199219 47.109375 C 34.265625 47.109375 35.308594 46.824219 36.230469 46.273438 C 38.433594 44.957031 42.605469 42.480469 45.742188 40.613281 L 48.023438 39.257812 C 48.328125 39.070312 48.535156 38.777344 48.589844 38.429688 C 48.640625 38.082031 48.542969 37.726562 48.316406 37.453125 L 48.296875 37.433594 C 47.980469 37.0625 47.46875 36.933594 47.023438 37.105469 L 36.101562 41.332031 C 35.566406 41.535156 35.003906 41.632812 34.425781 41.613281 L 23.851562 41.265625 C 23.578125 41.253906 23.363281 41.046875 23.328125 40.789062 C 23.296875 40.527344 23.472656 40.265625 23.71875 40.203125 L 32.460938 37.78125 C 32.800781 37.683594 33.027344 37.378906 33.027344 37.03125 C 33.027344 36.898438 32.996094 36.769531 32.929688 36.648438 C 32.789062 36.390625 32.496094 36.238281 32.203125 36.257812 L 20.136719 37.085938 C 19.472656 37.128906 18.832031 37.289062 18.226562 37.550781 L 12.523438 40.070312 C 12.253906 40.191406 11.925781 40.070312 11.808594 39.789062 C 11.6875 39.515625 11.808594 39.191406 12.089844 39.070312 L 17.800781 36.550781 C 18.53125 36.238281 19.289062 36.054688 20.070312 36 L 32.136719 35.171875 C 32.84375 35.117188 33.527344 35.488281 33.882812 36.105469 C 34.046875 36.390625 34.132812 36.703125 34.132812 37.03125 C 34.132812 37.867188 33.570312 38.605469 32.765625 38.820312 L 27.46875 40.289062 L 34.480469 40.515625 C 34.90625 40.527344 35.328125 40.460938 35.730469 40.300781 L 46.65625 36.074219 C 47.535156 35.738281 48.523438 35.988281 49.132812 36.703125 L 49.152344 36.726562 C 49.597656 37.246094 49.78125 37.921875 49.675781 38.59375 C 49.566406 39.257812 49.175781 39.832031 48.589844 40.179688 L 46.308594 41.535156 C 43.167969 43.40625 39.011719 45.878906 36.796875 47.195312 C 35.710938 47.835938 34.480469 48.183594 33.222656 48.183594 L 20.191406 48.5625 C 18.996094 48.59375 17.8125 48.921875 16.78125 49.507812 L 14.457031 50.8125 C 14.382812 50.863281 14.292969 50.886719 14.195312 50.886719 Z M 14.195312 50.886719 " fill-opacity="1" fill-rule="nonzero"/><g clip-path="url(#b160d38c30)"><path fill="#edce6f" d="M 9.015625 53.785156 C 8.910156 53.785156 8.800781 53.753906 8.703125 53.6875 C 8.582031 53.601562 8.496094 53.472656 8.472656 53.332031 L 6.214844 38.832031 C 6.171875 38.550781 6.355469 38.277344 6.640625 38.214844 L 9.996094 37.53125 C 10.636719 37.398438 11.296875 37.53125 11.839844 37.898438 C 12.382812 38.269531 12.742188 38.832031 12.859375 39.484375 L 14.738281 50.246094 C 14.96875 51.527344 14.109375 52.777344 12.828125 53.035156 L 9.125 53.773438 C 9.082031 53.773438 9.050781 53.785156 9.015625 53.785156 Z M 7.367188 39.179688 L 9.460938 52.601562 L 12.613281 51.972656 C 13.316406 51.832031 13.785156 51.148438 13.664062 50.441406 L 11.785156 39.679688 C 11.722656 39.320312 11.527344 39.019531 11.222656 38.8125 C 10.917969 38.605469 10.558594 38.527344 10.199219 38.605469 Z M 7.367188 39.179688 " fill-opacity="1" fill-rule="nonzero"/></g></svg>