<svg xmlns="http://www.w3.org/2000/svg" xmlns:xlink="http://www.w3.org/1999/xlink" width="80" zoomAndPan="magnify" viewBox="0 0 60 60" height="80" preserveAspectRatio="xMidYMid meet" version="1.0"><defs><clipPath id="7797be914e"><path d="M 11.234375 47 L 15 47 L 15 51 L 11.234375 51 Z M 11.234375 47 " clip-rule="nonzero"/></clipPath><clipPath id="c5869ca191"><path d="M 11.234375 42 L 15 42 L 15 46 L 11.234375 46 Z M 11.234375 42 " clip-rule="nonzero"/></clipPath><clipPath id="a3be17bd35"><path d="M 45 21 L 48.734375 21 L 48.734375 25 L 45 25 Z M 45 21 " clip-rule="nonzero"/></clipPath></defs><path fill="#23c3dc" d="M 20.882812 16.566406 C 23.179688 16.566406 25.039062 15.835938 25.039062 14.933594 C 25.039062 14.277344 24.058594 13.714844 22.644531 13.453125 C 22.507812 13.628906 22.378906 13.796875 22.257812 13.953125 C 23.257812 14.105469 23.949219 14.425781 23.949219 14.792969 C 23.949219 15.3125 22.574219 15.730469 20.882812 15.730469 C 19.191406 15.730469 17.820312 15.3125 17.820312 14.792969 C 17.820312 14.425781 18.507812 14.105469 19.511719 13.953125 C 19.386719 13.796875 19.257812 13.628906 19.125 13.453125 C 17.707031 13.714844 16.726562 14.277344 16.726562 14.933594 C 16.726562 15.835938 18.585938 16.566406 20.882812 16.566406 " fill-opacity="1" fill-rule="nonzero"/><path fill="#23c3dc" d="M 19.101562 6.976562 C 19.101562 5.996094 19.898438 5.195312 20.882812 5.195312 C 21.867188 5.195312 22.664062 5.996094 22.664062 6.976562 C 22.664062 7.960938 21.867188 8.761719 20.882812 8.761719 C 19.898438 8.761719 19.101562 7.960938 19.101562 6.976562 Z M 25.039062 7.15625 C 25.039062 4.859375 23.179688 3 20.882812 3 C 18.585938 3 16.726562 4.859375 16.726562 7.15625 C 16.726562 10.167969 20.882812 14.757812 20.882812 14.757812 C 20.882812 14.757812 25.039062 10.167969 25.039062 7.15625 " fill-opacity="1" fill-rule="nonzero"/><path fill="#23c3dc" d="M 35.816406 53.886719 C 35.679688 54.0625 35.550781 54.230469 35.429688 54.386719 C 36.433594 54.539062 37.121094 54.855469 37.121094 55.226562 C 37.121094 55.742188 35.746094 56.164062 34.054688 56.164062 C 32.363281 56.164062 30.992188 55.742188 30.992188 55.226562 C 30.992188 54.855469 31.679688 54.539062 32.683594 54.386719 C 32.558594 54.230469 32.429688 54.0625 32.296875 53.886719 C 30.878906 54.144531 29.898438 54.710938 29.898438 55.367188 C 29.898438 56.269531 31.761719 57 34.054688 57 C 36.351562 57 38.210938 56.269531 38.210938 55.367188 C 38.210938 54.710938 37.230469 54.144531 35.816406 53.886719 " fill-opacity="1" fill-rule="nonzero"/><path fill="#23c3dc" d="M 34.054688 49.191406 C 33.070312 49.191406 32.273438 48.394531 32.273438 47.410156 C 32.273438 46.425781 33.070312 45.628906 34.054688 45.628906 C 35.039062 45.628906 35.835938 46.425781 35.835938 47.410156 C 35.835938 48.394531 35.039062 49.191406 34.054688 49.191406 Z M 34.054688 43.433594 C 31.761719 43.433594 29.898438 45.292969 29.898438 47.589844 C 29.898438 50.601562 34.054688 55.191406 34.054688 55.191406 C 34.054688 55.191406 38.210938 50.601562 38.210938 47.589844 C 38.210938 45.292969 36.351562 43.433594 34.054688 43.433594 " fill-opacity="1" fill-rule="nonzero"/><path fill="#23c3dc" d="M 28.664062 15.800781 C 28.230469 15.734375 27.792969 15.671875 27.34375 15.605469 C 26.976562 15.550781 26.640625 15.804688 26.589844 16.171875 C 26.539062 16.535156 26.789062 16.871094 27.152344 16.921875 C 27.597656 16.988281 28.035156 17.050781 28.464844 17.117188 C 28.5 17.121094 28.53125 17.125 28.566406 17.125 C 28.890625 17.125 29.171875 16.886719 29.222656 16.558594 C 29.277344 16.195312 29.027344 15.855469 28.664062 15.800781 " fill-opacity="1" fill-rule="nonzero"/><g clip-path="url(#7797be914e)"><path fill="#23c3dc" d="M 12.632812 47.601562 C 12.496094 47.261719 12.105469 47.097656 11.769531 47.234375 C 11.425781 47.375 11.265625 47.761719 11.402344 48.101562 C 11.734375 48.917969 12.34375 49.710938 13.21875 50.464844 C 13.34375 50.574219 13.5 50.628906 13.652344 50.628906 C 13.839844 50.628906 14.023438 50.550781 14.15625 50.398438 C 14.394531 50.121094 14.367188 49.699219 14.085938 49.460938 C 13.375 48.84375 12.886719 48.21875 12.632812 47.601562 " fill-opacity="1" fill-rule="nonzero"/></g><path fill="#23c3dc" d="M 20.667969 39.304688 C 21.433594 38.945312 22.253906 38.578125 23.109375 38.222656 C 23.449219 38.082031 23.609375 37.691406 23.46875 37.351562 C 23.324219 37.015625 22.9375 36.855469 22.597656 36.996094 C 21.722656 37.359375 20.882812 37.734375 20.101562 38.105469 C 19.769531 38.261719 19.625 38.660156 19.785156 38.988281 C 19.898438 39.230469 20.136719 39.371094 20.386719 39.371094 C 20.480469 39.371094 20.578125 39.351562 20.667969 39.304688 " fill-opacity="1" fill-rule="nonzero"/><path fill="#23c3dc" d="M 15.679688 42.011719 C 15.808594 42.011719 15.941406 41.972656 16.054688 41.894531 C 16.714844 41.441406 17.472656 40.976562 18.300781 40.515625 C 18.621094 40.335938 18.738281 39.933594 18.5625 39.613281 C 18.382812 39.289062 17.980469 39.175781 17.65625 39.351562 C 16.789062 39.832031 15.996094 40.320312 15.300781 40.800781 C 15 41.007812 14.921875 41.421875 15.132812 41.726562 C 15.261719 41.910156 15.46875 42.011719 15.679688 42.011719 " fill-opacity="1" fill-rule="nonzero"/><path fill="#23c3dc" d="M 18.554688 52.0625 C 17.683594 51.683594 16.890625 51.296875 16.199219 50.90625 C 15.878906 50.726562 15.472656 50.839844 15.292969 51.15625 C 15.113281 51.476562 15.226562 51.882812 15.546875 52.0625 C 16.277344 52.476562 17.109375 52.886719 18.027344 53.285156 C 18.113281 53.320312 18.203125 53.339844 18.289062 53.339844 C 18.546875 53.339844 18.792969 53.191406 18.902344 52.9375 C 19.046875 52.601562 18.894531 52.210938 18.554688 52.0625 " fill-opacity="1" fill-rule="nonzero"/><path fill="#23c3dc" d="M 31.117188 17.542969 C 32.03125 17.699219 32.917969 17.859375 33.753906 18.023438 C 33.796875 18.03125 33.839844 18.035156 33.882812 18.035156 C 34.195312 18.035156 34.472656 17.8125 34.535156 17.496094 C 34.605469 17.136719 34.371094 16.785156 34.007812 16.714844 C 33.164062 16.550781 32.265625 16.390625 31.339844 16.230469 C 30.980469 16.171875 30.636719 16.414062 30.574219 16.773438 C 30.511719 17.136719 30.753906 17.480469 31.117188 17.542969 " fill-opacity="1" fill-rule="nonzero"/><g clip-path="url(#c5869ca191)"><path fill="#23c3dc" d="M 11.789062 45.847656 C 11.871094 45.882812 11.953125 45.894531 12.035156 45.894531 C 12.300781 45.894531 12.550781 45.738281 12.652344 45.480469 C 12.90625 44.851562 13.378906 44.191406 14.054688 43.519531 C 14.316406 43.261719 14.316406 42.839844 14.058594 42.578125 C 13.800781 42.320312 13.378906 42.316406 13.117188 42.574219 C 12.3125 43.375 11.742188 44.183594 11.421875 44.980469 C 11.28125 45.324219 11.449219 45.710938 11.789062 45.847656 " fill-opacity="1" fill-rule="nonzero"/></g><g clip-path="url(#a3be17bd35)"><path fill="#23c3dc" d="M 48.6875 23.765625 C 48.546875 22.839844 47.964844 21.96875 46.960938 21.171875 C 46.671875 20.945312 46.253906 20.992188 46.027344 21.28125 C 45.800781 21.570312 45.847656 21.988281 46.136719 22.214844 C 46.867188 22.792969 47.28125 23.382812 47.371094 23.964844 C 47.421875 24.296875 47.703125 24.53125 48.027344 24.53125 C 48.0625 24.53125 48.09375 24.527344 48.128906 24.523438 C 48.492188 24.46875 48.742188 24.128906 48.6875 23.765625 " fill-opacity="1" fill-rule="nonzero"/></g><path fill="#23c3dc" d="M 47.589844 25.808594 C 47.304688 25.578125 46.886719 25.625 46.65625 25.910156 C 46.222656 26.449219 45.59375 27.015625 44.792969 27.597656 C 44.496094 27.816406 44.429688 28.230469 44.644531 28.527344 C 44.773438 28.707031 44.976562 28.800781 45.183594 28.800781 C 45.316406 28.800781 45.453125 28.761719 45.574219 28.675781 C 46.46875 28.023438 47.183594 27.375 47.691406 26.746094 C 47.921875 26.457031 47.875 26.039062 47.589844 25.808594 " fill-opacity="1" fill-rule="nonzero"/><path fill="#23c3dc" d="M 39.3125 17.925781 C 38.492188 17.703125 37.601562 17.484375 36.667969 17.273438 C 36.3125 17.191406 35.953125 17.417969 35.871094 17.777344 C 35.792969 18.132812 36.015625 18.488281 36.375 18.570312 C 37.292969 18.777344 38.164062 18.992188 38.96875 19.210938 C 39.023438 19.226562 39.082031 19.234375 39.140625 19.234375 C 39.433594 19.234375 39.703125 19.039062 39.78125 18.742188 C 39.878906 18.386719 39.667969 18.019531 39.3125 17.925781 " fill-opacity="1" fill-rule="nonzero"/><path fill="#23c3dc" d="M 23.554688 53.875 C 22.660156 53.597656 21.808594 53.316406 21.027344 53.035156 C 20.675781 52.910156 20.300781 53.089844 20.175781 53.4375 C 20.050781 53.78125 20.230469 54.164062 20.578125 54.285156 C 21.378906 54.574219 22.25 54.863281 23.164062 55.144531 C 23.230469 55.164062 23.296875 55.175781 23.359375 55.175781 C 23.644531 55.175781 23.90625 54.992188 23.996094 54.703125 C 24.105469 54.355469 23.90625 53.980469 23.554688 53.875 " fill-opacity="1" fill-rule="nonzero"/><path fill="#23c3dc" d="M 44.835938 20.609375 C 44.988281 20.277344 44.84375 19.878906 44.511719 19.726562 C 43.761719 19.378906 42.894531 19.039062 41.933594 18.714844 C 41.585938 18.597656 41.210938 18.785156 41.09375 19.132812 C 40.976562 19.480469 41.160156 19.859375 41.507812 19.976562 C 42.425781 20.285156 43.246094 20.609375 43.953125 20.933594 C 44.042969 20.976562 44.136719 20.996094 44.230469 20.996094 C 44.484375 20.996094 44.722656 20.851562 44.835938 20.609375 " fill-opacity="1" fill-rule="nonzero"/><path fill="#23c3dc" d="M 42.574219 29 C 41.867188 29.398438 41.070312 29.808594 40.210938 30.222656 C 39.882812 30.382812 39.742188 30.777344 39.898438 31.109375 C 40.015625 31.347656 40.253906 31.488281 40.5 31.488281 C 40.597656 31.488281 40.695312 31.464844 40.789062 31.421875 C 41.671875 30.996094 42.492188 30.570312 43.226562 30.160156 C 43.546875 29.980469 43.660156 29.574219 43.480469 29.253906 C 43.296875 28.933594 42.894531 28.820312 42.574219 29 " fill-opacity="1" fill-rule="nonzero"/><path fill="#23c3dc" d="M 37.777344 31.320312 C 37 31.65625 36.164062 31.996094 35.296875 32.335938 C 34.953125 32.46875 34.785156 32.855469 34.917969 33.199219 C 35.019531 33.460938 35.273438 33.621094 35.539062 33.621094 C 35.617188 33.621094 35.699219 33.605469 35.78125 33.574219 C 36.664062 33.230469 37.511719 32.882812 38.300781 32.546875 C 38.636719 32.402344 38.796875 32.011719 38.652344 31.671875 C 38.507812 31.335938 38.113281 31.175781 37.777344 31.320312 " fill-opacity="1" fill-rule="nonzero"/><path fill="#23c3dc" d="M 30.464844 35.484375 C 30.535156 35.484375 30.609375 35.472656 30.683594 35.449219 C 31.480469 35.171875 32.339844 34.867188 33.238281 34.535156 C 33.585938 34.410156 33.761719 34.027344 33.636719 33.683594 C 33.507812 33.339844 33.125 33.160156 32.78125 33.289062 C 31.890625 33.613281 31.035156 33.917969 30.246094 34.191406 C 29.898438 34.3125 29.714844 34.691406 29.835938 35.039062 C 29.933594 35.3125 30.1875 35.484375 30.464844 35.484375 " fill-opacity="1" fill-rule="nonzero"/><path fill="#23c3dc" d="M 27.691406 35.074219 L 27.027344 35.304688 C 26.378906 35.53125 25.742188 35.761719 25.132812 35.992188 C 24.785156 36.121094 24.613281 36.503906 24.742188 36.847656 C 24.84375 37.117188 25.097656 37.28125 25.363281 37.28125 C 25.441406 37.28125 25.523438 37.265625 25.597656 37.238281 C 26.199219 37.011719 26.828125 36.785156 27.46875 36.558594 L 28.125 36.332031 C 28.472656 36.210938 28.65625 35.832031 28.539062 35.484375 C 28.417969 35.136719 28.039062 34.953125 27.691406 35.074219 " fill-opacity="1" fill-rule="nonzero"/><path fill="#23c3dc" d="M 27.414062 54.953125 C 26.976562 54.84375 26.550781 54.730469 26.136719 54.617188 C 25.777344 54.519531 25.414062 54.730469 25.320312 55.085938 C 25.222656 55.441406 25.433594 55.804688 25.785156 55.902344 C 26.207031 56.015625 26.640625 56.128906 27.082031 56.242188 C 27.136719 56.257812 27.195312 56.265625 27.25 56.265625 C 27.542969 56.265625 27.816406 56.066406 27.890625 55.765625 C 27.984375 55.410156 27.769531 55.046875 27.414062 54.953125 " fill-opacity="1" fill-rule="nonzero"/></svg>