<svg xmlns="http://www.w3.org/2000/svg" xmlns:xlink="http://www.w3.org/1999/xlink" width="80" zoomAndPan="magnify" viewBox="0 0 60 60" height="80" preserveAspectRatio="xMidYMid meet" version="1.0"><defs><clipPath id="bebe8e29b6"><path d="M 9.960938 30 L 39 30 L 39 52.015625 L 9.960938 52.015625 Z M 9.960938 30 " clip-rule="nonzero"/></clipPath><clipPath id="4e526f9705"><path d="M 39 34 L 49.710938 34 L 49.710938 52.015625 L 39 52.015625 Z M 39 34 " clip-rule="nonzero"/></clipPath><clipPath id="d03a0d9a3c"><path d="M 16 7.765625 L 44 7.765625 L 44 29 L 16 29 Z M 16 7.765625 " clip-rule="nonzero"/></clipPath></defs><rect x="-6" width="72" fill="#ffffff" y="-6" height="72" fill-opacity="1"/><rect x="-6" width="72" fill="#ffffff" y="-6" height="72" fill-opacity="1"/><g clip-path="url(#bebe8e29b6)"><path fill="#edce6f" d="M 35.921875 50.558594 C 35.921875 50.660156 35.839844 50.746094 35.738281 50.746094 L 32.402344 50.746094 C 32.300781 50.746094 32.21875 50.660156 32.21875 50.558594 L 32.21875 49.261719 L 35.921875 49.261719 Z M 17.855469 47.78125 L 17.113281 46.300781 L 31.019531 46.300781 L 30.277344 47.78125 Z M 15.914062 50.558594 C 15.914062 50.660156 15.832031 50.746094 15.730469 50.746094 L 12.394531 50.746094 C 12.292969 50.746094 12.210938 50.660156 12.210938 50.558594 L 12.210938 49.261719 L 15.914062 49.261719 Z M 12.757812 40.191406 L 16.253906 42.6875 L 15.609375 43.335938 L 13.867188 43.335938 L 11.722656 42.261719 Z M 34.648438 38.890625 L 30.5 41.851562 L 27.375 41.851562 C 26.859375 40.96875 25.902344 40.371094 24.808594 40.371094 L 23.324219 40.371094 C 22.230469 40.371094 21.273438 40.96875 20.761719 41.851562 L 17.636719 41.851562 L 13.484375 38.890625 Z M 36.410156 42.261719 L 34.265625 43.335938 L 32.523438 43.335938 L 31.878906 42.6875 L 35.375 40.191406 Z M 27.773438 43.335938 L 30.429688 43.335938 L 31.476562 44.382812 L 31.476562 44.816406 L 27.375 44.816406 C 27.628906 44.378906 27.773438 43.875 27.773438 43.335938 Z M 21.84375 43.335938 C 21.84375 42.519531 22.507812 41.851562 23.324219 41.851562 L 24.808594 41.851562 C 25.625 41.851562 26.289062 42.519531 26.289062 43.335938 C 26.289062 44.152344 25.625 44.816406 24.808594 44.816406 L 23.324219 44.816406 C 22.507812 44.816406 21.84375 44.152344 21.84375 43.335938 Z M 16.65625 44.382812 L 17.703125 43.335938 L 20.363281 43.335938 C 20.363281 43.875 20.507812 44.378906 20.761719 44.816406 L 16.65625 44.816406 Z M 11.46875 47.597656 L 11.46875 43.792969 L 13.359375 44.738281 C 13.464844 44.789062 13.578125 44.816406 13.691406 44.816406 L 15.175781 44.816406 L 15.175781 45.558594 C 15.175781 45.5625 15.175781 45.5625 15.175781 45.566406 C 15.175781 45.570312 15.175781 45.570312 15.175781 45.574219 C 15.175781 45.582031 15.175781 45.585938 15.175781 45.59375 C 15.179688 45.703125 15.210938 45.808594 15.257812 45.898438 L 16.199219 47.78125 L 11.65625 47.78125 C 11.554688 47.78125 11.46875 47.699219 11.46875 47.597656 Z M 36.664062 47.597656 C 36.664062 47.699219 36.582031 47.78125 36.480469 47.78125 L 31.933594 47.78125 L 32.875 45.898438 C 32.921875 45.808594 32.953125 45.703125 32.957031 45.59375 C 32.957031 45.585938 32.957031 45.582031 32.957031 45.574219 C 32.957031 45.570312 32.957031 45.570312 32.960938 45.566406 C 32.960938 45.5625 32.960938 45.5625 32.960938 45.558594 L 32.960938 44.816406 L 34.441406 44.816406 C 34.554688 44.816406 34.667969 44.789062 34.773438 44.738281 L 36.664062 43.792969 Z M 38.09375 42.324219 C 38.09375 42.320312 38.09375 42.320312 38.09375 42.320312 C 38.089844 42.316406 38.089844 42.308594 38.085938 42.304688 C 38.085938 42.304688 38.085938 42.300781 38.085938 42.300781 C 38.082031 42.296875 38.082031 42.292969 38.078125 42.285156 C 38.078125 42.285156 38.078125 42.28125 38.078125 42.28125 C 38.074219 42.273438 38.070312 42.269531 38.066406 42.261719 L 36.3125 38.753906 L 35.871094 37.867188 L 34.113281 32.453125 C 34.109375 32.441406 34.109375 32.429688 34.101562 32.421875 C 33.726562 31.414062 32.75 30.738281 31.675781 30.738281 L 20.363281 30.738281 L 20.363281 32.21875 L 31.675781 32.21875 C 32.132812 32.21875 32.546875 32.503906 32.710938 32.925781 L 34.164062 37.40625 L 13.972656 37.40625 L 15.421875 32.925781 C 15.589844 32.503906 16.003906 32.21875 16.457031 32.21875 L 18.878906 32.21875 L 18.878906 30.738281 L 16.457031 30.738281 C 15.382812 30.738281 14.40625 31.414062 14.03125 32.421875 C 14.027344 32.429688 14.023438 32.441406 14.019531 32.453125 L 12.265625 37.867188 L 11.820312 38.753906 L 10.066406 42.261719 C 10.0625 42.269531 10.058594 42.273438 10.058594 42.28125 C 10.054688 42.28125 10.054688 42.285156 10.054688 42.285156 C 10.050781 42.292969 10.050781 42.296875 10.046875 42.300781 C 10.046875 42.300781 10.046875 42.304688 10.046875 42.304688 C 10.042969 42.308594 10.042969 42.316406 10.039062 42.320312 C 10.039062 42.320312 10.039062 42.320312 10.039062 42.324219 C 10.003906 42.414062 9.984375 42.511719 9.988281 42.605469 L 9.988281 47.597656 C 9.988281 48.171875 10.28125 48.683594 10.730469 48.980469 L 10.730469 50.558594 C 10.730469 51.480469 11.476562 52.226562 12.394531 52.226562 L 15.730469 52.226562 C 16.648438 52.226562 17.398438 51.480469 17.398438 50.558594 L 17.398438 49.261719 L 30.734375 49.261719 L 30.734375 50.558594 C 30.734375 51.480469 31.484375 52.226562 32.402344 52.226562 L 35.738281 52.226562 C 36.65625 52.226562 37.40625 51.480469 37.40625 50.558594 L 37.40625 48.980469 C 37.851562 48.683594 38.144531 48.171875 38.144531 47.597656 L 38.144531 42.605469 C 38.148438 42.511719 38.132812 42.414062 38.09375 42.324219 " fill-opacity="1" fill-rule="nonzero"/></g><g clip-path="url(#4e526f9705)"><path fill="#edce6f" d="M 48.335938 50.746094 L 41.296875 50.746094 C 41.195312 50.746094 41.109375 50.660156 41.109375 50.558594 L 41.109375 46.585938 L 48.519531 49.054688 L 48.519531 50.558594 C 48.519531 50.660156 48.4375 50.746094 48.335938 50.746094 Z M 48.519531 47.492188 L 41.109375 45.023438 L 41.109375 43.621094 L 48.519531 46.09375 Z M 41.296875 40.371094 L 48.335938 40.371094 C 48.4375 40.371094 48.519531 40.453125 48.519531 40.554688 L 48.519531 44.53125 L 41.109375 42.058594 L 41.109375 40.554688 C 41.109375 40.453125 41.195312 40.371094 41.296875 40.371094 Z M 43.332031 35.925781 L 46.296875 35.925781 L 46.296875 38.890625 L 43.332031 38.890625 Z M 48.335938 38.890625 L 47.78125 38.890625 L 47.78125 35.925781 L 49.261719 35.925781 L 49.261719 34.441406 L 40.371094 34.441406 L 40.371094 35.925781 L 41.851562 35.925781 L 41.851562 38.890625 L 41.296875 38.890625 C 40.375 38.890625 39.628906 39.636719 39.628906 40.554688 L 39.628906 50.558594 C 39.628906 51.480469 40.375 52.226562 41.296875 52.226562 L 48.335938 52.226562 C 49.253906 52.226562 50.003906 51.480469 50.003906 50.558594 L 50.003906 40.554688 C 50.003906 39.636719 49.253906 38.890625 48.335938 38.890625 " fill-opacity="1" fill-rule="nonzero"/></g><path fill="#edce6f" d="M 21.597656 19.621094 L 24.363281 21.695312 C 24.542969 21.832031 24.769531 21.878906 24.988281 21.824219 L 27.953125 21.082031 C 28.167969 21.027344 28.351562 20.878906 28.445312 20.671875 C 28.539062 20.46875 28.535156 20.234375 28.433594 20.03125 L 26.746094 16.660156 L 27.558594 16.660156 L 33.238281 20.25 C 33.355469 20.324219 33.492188 20.363281 33.632812 20.363281 L 35.363281 20.363281 C 35.585938 20.363281 35.796875 20.429688 35.980469 20.550781 C 36.023438 20.578125 36.066406 20.601562 36.113281 20.621094 L 38.839844 21.722656 C 38.878906 21.761719 38.886719 21.808594 38.886719 21.84375 C 38.886719 21.882812 38.878906 21.933594 38.835938 21.972656 L 35.769531 23.328125 L 22.402344 23.328125 L 21.34375 19.621094 Z M 21.132812 24.273438 C 21.222656 24.589844 21.511719 24.808594 21.84375 24.808594 L 35.925781 24.808594 C 36.027344 24.808594 36.128906 24.789062 36.226562 24.746094 L 39.515625 23.292969 C 39.554688 23.277344 39.589844 23.257812 39.625 23.234375 C 40.089844 22.921875 40.371094 22.402344 40.371094 21.84375 C 40.371094 21.285156 40.089844 20.769531 39.625 20.457031 C 39.585938 20.429688 39.539062 20.40625 39.492188 20.386719 L 36.734375 19.273438 C 36.324219 19.015625 35.851562 18.882812 35.363281 18.882812 L 33.847656 18.882812 L 28.167969 15.292969 C 28.050781 15.214844 27.914062 15.175781 27.773438 15.175781 L 25.550781 15.175781 C 25.292969 15.175781 25.054688 15.308594 24.917969 15.527344 C 24.785156 15.746094 24.769531 16.019531 24.886719 16.25 L 26.695312 19.867188 L 24.96875 20.300781 L 22.289062 18.289062 C 22.160156 18.191406 22.003906 18.140625 21.84375 18.140625 L 20.363281 18.140625 C 20.128906 18.140625 19.910156 18.25 19.769531 18.433594 C 19.628906 18.621094 19.585938 18.863281 19.648438 19.085938 L 21.132812 24.273438 " fill-opacity="1" fill-rule="nonzero"/><g clip-path="url(#d03a0d9a3c)"><path fill="#edce6f" d="M 18.324219 28.515625 L 41.664062 28.515625 C 42.585938 28.515625 43.332031 27.765625 43.332031 26.847656 L 43.332031 18.882812 L 41.851562 18.882812 L 41.851562 26.847656 C 41.851562 26.949219 41.769531 27.03125 41.664062 27.03125 L 18.324219 27.03125 C 18.222656 27.03125 18.140625 26.949219 18.140625 26.847656 L 18.140625 13.136719 C 18.140625 13.035156 18.222656 12.953125 18.324219 12.953125 L 41.664062 12.953125 C 41.769531 12.953125 41.851562 13.035156 41.851562 13.136719 L 41.851562 17.398438 L 43.332031 17.398438 L 43.332031 13.136719 C 43.332031 12.21875 42.585938 11.472656 41.664062 11.472656 L 40.371094 11.472656 L 40.371094 7.765625 L 38.886719 7.765625 L 38.886719 11.472656 L 21.101562 11.472656 L 21.101562 7.765625 L 19.621094 7.765625 L 19.621094 11.472656 L 18.324219 11.472656 C 17.40625 11.472656 16.65625 12.21875 16.65625 13.136719 L 16.65625 26.847656 C 16.65625 27.765625 17.40625 28.515625 18.324219 28.515625 " fill-opacity="1" fill-rule="nonzero"/></g><path fill="#edce6f" d="M 21.101562 14.433594 L 19.621094 14.433594 L 19.621094 15.917969 L 21.101562 15.917969 L 21.101562 14.433594 " fill-opacity="1" fill-rule="nonzero"/><path fill="#edce6f" d="M 40.371094 14.433594 L 38.886719 14.433594 L 38.886719 15.917969 L 40.371094 15.917969 L 40.371094 14.433594 " fill-opacity="1" fill-rule="nonzero"/></svg>