<svg xmlns="http://www.w3.org/2000/svg" xmlns:xlink="http://www.w3.org/1999/xlink" width="80" zoomAndPan="magnify" viewBox="0 0 60 60" height="80" preserveAspectRatio="xMidYMid meet" version="1.0"><defs><clipPath id="341732fbe1"><path d="M 4.601562 0 L 56.351562 0 L 56.351562 28 L 4.601562 28 Z M 4.601562 0 " clip-rule="nonzero"/></clipPath></defs><path fill="#4f4f1a" d="M 31.933594 55.375 L 30.472656 60.738281 L 29.019531 55.375 L 29.019531 26.390625 L 31.933594 26.390625 L 31.933594 55.375 " fill-opacity="1" fill-rule="nonzero"/><path fill="#3a3918" d="M 30.925781 27.730469 L 30.925781 59.078125 L 31.933594 55.375 L 31.933594 26.390625 L 30.925781 27.730469 " fill-opacity="1" fill-rule="nonzero"/><path fill="#3a3918" d="M 29.019531 26.171875 L 31.933594 26.171875 L 31.933594 28.792969 L 29.019531 28.792969 L 29.019531 26.171875 " fill-opacity="1" fill-rule="nonzero"/><g clip-path="url(#341732fbe1)"><path fill="#4f4f1a" d="M 56.347656 19.945312 C 56.347656 23.929688 53.171875 27.1875 49.289062 27.1875 L 11.660156 27.1875 C 7.777344 27.1875 4.601562 23.929688 4.601562 19.945312 L 4.601562 7.257812 C 4.601562 3.273438 7.777344 0.0117188 11.660156 0.0117188 L 49.289062 0.0117188 C 53.171875 0.0117188 56.347656 3.273438 56.347656 7.257812 L 56.347656 19.945312 " fill-opacity="1" fill-rule="nonzero"/></g><path fill="#96962c" d="M 55.195312 19.46875 C 55.195312 23.15625 52.160156 26.171875 48.453125 26.171875 L 12.5 26.171875 C 8.789062 26.171875 5.753906 23.15625 5.753906 19.46875 L 5.753906 7.734375 C 5.753906 4.046875 8.789062 1.03125 12.5 1.03125 L 48.453125 1.03125 C 52.160156 1.03125 55.195312 4.046875 55.195312 7.734375 L 55.195312 19.46875 " fill-opacity="1" fill-rule="nonzero"/><path fill="#ececea" d="M 52.464844 18.070312 C 52.464844 21.015625 50.039062 23.429688 47.070312 23.429688 L 13.878906 23.429688 C 10.914062 23.429688 8.484375 21.015625 8.484375 18.070312 L 8.484375 9.132812 C 8.484375 6.1875 10.914062 3.773438 13.878906 3.773438 L 47.070312 3.773438 C 50.039062 3.773438 52.464844 6.1875 52.464844 9.132812 L 52.464844 18.070312 " fill-opacity="1" fill-rule="nonzero"/><path fill="#7e7f25" d="M 20.765625 8.25 C 20.082031 8.25 19.203125 8.132812 18.125 7.894531 L 17.335938 11.613281 L 20.082031 11.613281 L 19.78125 13.003906 L 17.03125 13.003906 L 15.503906 20.039062 L 12.792969 20.039062 L 15.503906 7.539062 C 14.707031 7.5625 14.101562 7.859375 13.683594 8.433594 C 13.265625 9 13.058594 9.992188 13.058594 11.414062 C 13.058594 11.90625 13.136719 12.289062 13.289062 12.554688 C 13.3125 12.605469 13.324219 12.648438 13.324219 12.683594 C 12.3125 12.683594 11.679688 12.363281 11.429688 11.722656 C 11.34375 11.492188 11.300781 11.136719 11.300781 10.652344 C 11.300781 10.171875 11.417969 9.640625 11.652344 9.054688 C 11.882812 8.46875 12.257812 7.953125 12.773438 7.5 C 13.90625 6.503906 15.558594 6.003906 17.730469 6.003906 C 18.140625 6.003906 18.613281 6.039062 19.144531 6.117188 C 19.679688 6.191406 20.261719 6.230469 20.894531 6.230469 C 21.523438 6.230469 22.078125 6.15625 22.546875 6.003906 L 22.375 6.632812 C 22.148438 7.527344 21.609375 8.066406 20.765625 8.25 " fill-opacity="1" fill-rule="nonzero"/><path fill="#7e7f25" d="M 19.0625 20.039062 L 21.058594 10.683594 L 23.769531 10.683594 L 23.53125 11.84375 C 23.84375 11.570312 24.191406 11.308594 24.566406 11.058594 C 24.945312 10.808594 25.351562 10.683594 25.789062 10.683594 C 26.226562 10.683594 26.558594 10.824219 26.777344 11.109375 C 27 11.398438 27.109375 11.671875 27.109375 11.933594 C 27.109375 12.386719 26.988281 12.75 26.746094 13.03125 C 26.503906 13.3125 26.210938 13.453125 25.867188 13.453125 C 25.523438 13.453125 25.296875 13.375 25.1875 13.21875 C 25.078125 13.0625 25.011719 12.90625 24.984375 12.742188 C 24.960938 12.582031 24.929688 12.453125 24.886719 12.359375 C 24.847656 12.265625 24.765625 12.21875 24.636719 12.21875 C 24.378906 12.21875 24.152344 12.277344 23.957031 12.394531 C 23.757812 12.515625 23.535156 12.691406 23.285156 12.929688 L 21.777344 20.039062 L 19.0625 20.039062 " fill-opacity="1" fill-rule="nonzero"/><path fill="#7e7f25" d="M 32.324219 12.179688 C 32.324219 11.730469 32.167969 11.503906 31.855469 11.503906 C 31.394531 11.515625 30.949219 11.921875 30.519531 12.714844 C 30.09375 13.511719 29.78125 14.390625 29.59375 15.359375 C 30.316406 15.3125 30.953125 14.976562 31.5 14.355469 C 32.050781 13.734375 32.324219 13.007812 32.324219 12.179688 Z M 34.734375 16.6875 C 33.324219 18.996094 31.597656 20.148438 29.554688 20.148438 C 28.660156 20.148438 27.949219 19.921875 27.414062 19.460938 C 26.878906 19 26.613281 18.242188 26.613281 17.179688 C 26.613281 15.753906 26.976562 14.375 27.707031 13.039062 C 28.265625 12.023438 29.023438 11.296875 29.988281 10.863281 C 30.484375 10.632812 31 10.519531 31.53125 10.519531 C 32.402344 10.519531 32.996094 10.679688 33.308594 11.007812 C 33.621094 11.332031 33.777344 11.765625 33.777344 12.308594 C 33.777344 13.375 33.34375 14.28125 32.480469 15.027344 C 31.617188 15.773438 30.605469 16.183594 29.445312 16.257812 C 29.414062 16.609375 29.398438 16.859375 29.398438 17.003906 C 29.398438 17.644531 29.511719 18.066406 29.738281 18.273438 C 29.96875 18.476562 30.285156 18.578125 30.695312 18.578125 C 31.417969 18.578125 32.027344 18.417969 32.523438 18.097656 C 33.015625 17.777344 33.539062 17.308594 34.089844 16.6875 L 34.734375 16.6875 " fill-opacity="1" fill-rule="nonzero"/><path fill="#7e7f25" d="M 35.46875 18.671875 C 36.667969 18.671875 37.269531 18.089844 37.269531 16.933594 C 37.269531 16.609375 37.246094 16.230469 37.195312 15.789062 L 37.085938 14.722656 C 37.019531 14.039062 36.960938 13.300781 36.914062 12.5 C 36.59375 13.523438 36.085938 14.703125 35.382812 16.039062 C 35.671875 16.171875 35.816406 16.371094 35.816406 16.636719 C 35.816406 16.902344 35.742188 17.128906 35.59375 17.320312 C 35.441406 17.511719 35.242188 17.609375 34.984375 17.609375 C 34.730469 17.609375 34.5625 17.527344 34.484375 17.363281 C 34.484375 18.234375 34.8125 18.671875 35.46875 18.671875 Z M 42.070312 16.6875 C 41.292969 17.589844 40.332031 18.367188 39.191406 19.027344 C 38.480469 19.777344 37.496094 20.148438 36.230469 20.148438 C 35.347656 20.148438 34.667969 19.910156 34.195312 19.433594 C 33.71875 18.953125 33.480469 18.445312 33.480469 17.90625 C 33.480469 17.367188 33.585938 16.949219 33.792969 16.648438 C 34.003906 16.351562 34.234375 16.140625 34.484375 16.019531 C 35.367188 14.449219 36.140625 12.597656 36.800781 10.472656 L 39.585938 10.105469 C 39.636719 11.277344 39.6875 12.253906 39.734375 13.039062 L 39.964844 16.007812 C 39.988281 16.300781 40 16.59375 40 16.878906 C 40 17.164062 39.976562 17.414062 39.929688 17.628906 C 40.480469 17.3125 40.929688 16.996094 41.28125 16.6875 L 42.070312 16.6875 " fill-opacity="1" fill-rule="nonzero"/><path fill="#7e7f25" d="M 45.050781 11.632812 C 45.683594 10.949219 46.414062 10.609375 47.246094 10.609375 C 47.847656 10.609375 48.347656 10.773438 48.746094 11.101562 C 49.144531 11.429688 49.34375 11.917969 49.34375 12.566406 C 49.34375 13.210938 49.238281 13.941406 49.03125 14.757812 L 48.582031 16.566406 C 48.484375 16.964844 48.433594 17.285156 48.433594 17.535156 C 48.433594 17.785156 48.488281 17.984375 48.597656 18.125 C 48.703125 18.269531 48.902344 18.339844 49.195312 18.339844 C 49.492188 18.339844 49.695312 18.300781 49.8125 18.222656 C 49.722656 18.898438 49.476562 19.386719 49.078125 19.691406 C 48.679688 19.996094 48.265625 20.148438 47.835938 20.148438 C 47.09375 20.148438 46.578125 19.949219 46.28125 19.550781 C 45.988281 19.152344 45.839844 18.671875 45.839844 18.113281 C 45.839844 17.550781 45.984375 16.710938 46.265625 15.589844 C 46.546875 14.46875 46.6875 13.695312 46.6875 13.269531 C 46.6875 12.628906 46.460938 12.308594 46.007812 12.308594 C 45.40625 12.308594 44.933594 12.808594 44.589844 13.808594 L 43.257812 20.039062 L 40.542969 20.039062 L 43.277344 7.308594 L 46.0625 6.933594 L 45.050781 11.632812 " fill-opacity="1" fill-rule="nonzero"/></svg>