<svg xmlns="http://www.w3.org/2000/svg" xmlns:xlink="http://www.w3.org/1999/xlink" width="80" zoomAndPan="magnify" viewBox="0 0 60 60" height="80" preserveAspectRatio="xMidYMid meet" version="1.0"><defs><clipPath id="3fb76f422a"><path d="M 0 0.917969 L 59.023438 0.917969 L 59.023438 60 L 0 60 Z M 0 0.917969 " clip-rule="nonzero"/></clipPath><clipPath id="c79fe31049"><path d="M 20 0.917969 L 31 0.917969 L 31 11 L 20 11 Z M 20 0.917969 " clip-rule="nonzero"/></clipPath></defs><g clip-path="url(#3fb76f422a)"><path fill="#4f4f1a" d="M 59.050781 37.386719 C 58.976562 37.140625 58.714844 36.996094 58.46875 37.074219 L 51.082031 39.3125 L 50.503906 37.542969 C 50.425781 37.300781 50.167969 37.164062 49.921875 37.238281 L 47.554688 37.957031 C 47.679688 37.476562 47.699219 36.90625 47.347656 36.445312 C 47.050781 36.054688 46.671875 35.863281 46.320312 35.785156 C 46.5 35.164062 46.484375 34.390625 45.78125 33.863281 C 45.003906 33.28125 44.167969 33.53125 43.621094 33.878906 C 43.230469 33.46875 42.519531 32.921875 41.644531 33.191406 C 40.789062 33.457031 40.5 34.289062 40.402344 34.855469 C 39.703125 34.824219 39.105469 35.164062 38.738281 35.453125 C 38.546875 35.265625 38.34375 35.128906 38.125 35.035156 L 42.359375 30.148438 C 44.125 28.109375 44.605469 25.238281 43.640625 22.46875 L 42.84375 20.183594 L 44.636719 18.339844 C 44.953125 18.015625 45.121094 17.578125 45.105469 17.105469 C 45.09375 16.726562 44.957031 16.355469 44.730469 16.03125 L 58.9375 1.761719 C 59.117188 1.578125 59.117188 1.28125 58.933594 1.101562 C 58.75 0.917969 58.453125 0.917969 58.273438 1.101562 L 44.078125 15.363281 L 42.636719 14.058594 L 54.863281 1.761719 C 55.042969 1.578125 55.042969 1.28125 54.859375 1.101562 C 54.675781 0.917969 54.378906 0.917969 54.199219 1.101562 L 41.90625 13.464844 C 41.121094 13.003906 40.128906 13.070312 39.53125 13.683594 L 37.726562 15.539062 L 35.289062 14.910156 C 33.769531 14.523438 32.246094 14.515625 30.855469 14.851562 C 30.726562 14.285156 30.378906 13.480469 29.433594 13.179688 C 28.867188 13 28.230469 13.0625 27.542969 13.371094 C 27.125 13.554688 26.664062 13.558594 26.300781 13.371094 C 25.566406 12.996094 24.792969 13.039062 24.128906 13.492188 C 23.496094 13.925781 23.144531 14.585938 23.109375 15.40625 C 23.089844 15.800781 22.878906 16.160156 22.542969 16.371094 C 22.050781 16.675781 21.460938 17.285156 21.460938 18.46875 C 21.460938 19.753906 22.230469 20.425781 22.988281 20.730469 L 18.316406 25.019531 C 18.257812 25.070312 18.203125 25.128906 18.148438 25.1875 C 17.535156 25.238281 16.582031 25.222656 16.167969 24.953125 C 15.929688 24.800781 15.738281 24.539062 15.589844 24.277344 C 16.0625 24.324219 16.632812 24.304688 17.089844 24.046875 C 18.125 23.464844 18.65625 21.816406 18.359375 20.121094 C 18.207031 19.269531 17.632812 18.484375 16.78125 17.960938 C 15.621094 17.25 14.078125 17.105469 12.554688 17.574219 C 12.425781 17.613281 12.300781 17.660156 12.175781 17.707031 C 12.171875 17.710938 12.164062 17.707031 12.15625 17.710938 C 12.140625 17.714844 12.125 17.722656 12.105469 17.730469 C 9.683594 18.671875 8.835938 20.738281 9.050781 22.625 C 9.050781 22.632812 9.050781 22.644531 9.050781 22.652344 C 9.074219 22.839844 9.101562 23.023438 9.144531 23.207031 C 9.371094 24.183594 10.097656 25.34375 11.183594 26.425781 C 11.210938 26.453125 11.234375 26.480469 11.265625 26.5 C 11.347656 26.578125 11.425781 26.65625 11.511719 26.734375 C 9.824219 26.351562 7.9375 26.179688 6.683594 26.6875 C 6.042969 26.949219 5.613281 27.363281 5.40625 27.921875 C 4.78125 29.601562 7.070312 31.257812 9.089844 32.722656 C 10.097656 33.453125 11.351562 34.359375 11.46875 34.820312 C 11.609375 35.359375 11.417969 35.765625 11.175781 36.273438 C 10.847656 36.964844 10.441406 37.824219 10.871094 39.160156 C 11.375 40.722656 12.917969 41.375 13.960938 41.644531 C 13.789062 41.765625 13.613281 41.867188 13.433594 41.910156 C 12.992188 42.015625 12.371094 41.792969 11.714844 41.5625 C 10.742188 41.214844 9.636719 40.816406 8.59375 41.320312 C 8.050781 41.585938 7.632812 42 7.359375 42.542969 C 6.78125 42.429688 6.160156 42.378906 5.527344 42.402344 C 5.199219 41.433594 5.117188 40.363281 5.058594 39.441406 C 5.003906 38.628906 4.953125 37.921875 4.734375 37.449219 C 4.242188 36.382812 3.394531 35.988281 2.671875 35.949219 C 2.640625 35.59375 2.695312 35.183594 2.839844 34.730469 C 2.917969 34.484375 2.78125 34.21875 2.53125 34.144531 C 2.285156 34.066406 2.023438 34.203125 1.945312 34.449219 C 1.757812 35.050781 1.691406 35.609375 1.75 36.109375 C 1.3125 36.292969 0.777344 36.652344 0.417969 37.289062 C -0.109375 38.226562 -0.0820312 39.449219 0.503906 40.914062 C 0.941406 42 1.597656 42.757812 2.300781 43.28125 C 1.875 43.589844 1.609375 43.957031 1.53125 44.378906 C 1.390625 45.140625 1.789062 45.933594 2.691406 46.664062 C 2.960938 46.882812 3.054688 47.226562 2.933594 47.535156 C 2.679688 48.175781 2.65625 48.839844 2.867188 49.453125 C 3.132812 50.214844 3.835938 50.703125 4.515625 51.011719 L 2.179688 51.722656 C 2.058594 51.757812 1.957031 51.839844 1.898438 51.953125 C 1.839844 52.0625 1.832031 52.195312 1.871094 52.3125 L 2.714844 54.90625 C 3.726562 58.003906 6.699219 59.988281 9.890625 59.988281 C 10.636719 59.988281 11.390625 59.882812 12.136719 59.65625 L 46.433594 49.253906 C 48.386719 48.660156 49.972656 47.359375 50.894531 45.589844 C 50.941406 45.5 50.980469 45.40625 51.023438 45.3125 L 58.742188 42.972656 C 58.988281 42.898438 59.128906 42.636719 59.054688 42.386719 C 58.976562 42.140625 58.71875 42 58.46875 42.074219 L 51.441406 44.207031 C 51.804688 42.902344 51.785156 41.523438 51.371094 40.207031 L 58.742188 37.972656 C 58.988281 37.894531 59.128906 37.632812 59.050781 37.386719 Z M 41.917969 34.085938 C 42.542969 33.894531 43.152344 34.777344 43.15625 34.785156 C 43.234375 34.902344 43.359375 34.980469 43.5 34.996094 C 43.640625 35.007812 43.78125 34.960938 43.878906 34.859375 C 43.910156 34.832031 44.601562 34.152344 45.21875 34.613281 C 45.804688 35.050781 45.230469 35.960938 45.207031 35.996094 C 45.101562 36.160156 45.109375 36.367188 45.222656 36.523438 C 45.335938 36.683594 45.535156 36.75 45.722656 36.707031 C 45.777344 36.691406 46.273438 36.578125 46.601562 37.011719 C 46.828125 37.308594 46.613281 37.929688 46.425781 38.300781 L 44.027344 39.027344 C 44.15625 38.523438 44.144531 37.964844 43.765625 37.53125 C 43.304688 36.996094 42.660156 36.902344 42.183594 36.921875 C 42.167969 36.28125 41.960938 35.527344 41.3125 35.125 C 41.355469 34.785156 41.488281 34.21875 41.917969 34.085938 Z M 38.308594 36.394531 C 38.390625 36.511719 38.523438 36.585938 38.667969 36.59375 C 38.808594 36.601562 38.949219 36.542969 39.046875 36.4375 C 39.054688 36.425781 39.835938 35.550781 40.664062 35.847656 C 41.421875 36.117188 41.21875 37.378906 41.214844 37.390625 C 41.1875 37.550781 41.246094 37.714844 41.367188 37.824219 C 41.488281 37.929688 41.660156 37.964844 41.816406 37.917969 C 41.824219 37.917969 42.652344 37.675781 43.058594 38.144531 C 43.324219 38.449219 43.039062 39.078125 42.867188 39.378906 L 37.222656 41.089844 C 36.941406 40.945312 36.296875 40.5625 35.9375 39.941406 C 35.585938 39.335938 35.683594 38.246094 35.769531 37.753906 L 37.421875 35.847656 C 37.765625 35.824219 38.027344 35.992188 38.308594 36.394531 Z M 22.398438 18.46875 C 22.398438 17.855469 22.605469 17.429688 23.035156 17.167969 C 23.636719 16.796875 24.011719 16.152344 24.042969 15.445312 C 24.066406 14.917969 24.269531 14.53125 24.65625 14.265625 C 25.042969 14.003906 25.441406 13.984375 25.875 14.207031 C 26.484375 14.519531 27.25 14.527344 27.925781 14.226562 C 28.398438 14.015625 28.808594 13.964844 29.152344 14.074219 C 29.703125 14.246094 29.890625 14.773438 29.957031 15.121094 C 29.03125 15.464844 28.183594 15.96875 27.460938 16.632812 L 23.796875 19.988281 C 23.371094 19.921875 22.398438 19.632812 22.398438 18.46875 Z M 28.09375 17.324219 C 29.363281 16.160156 31.074219 15.542969 32.90625 15.542969 C 33.609375 15.542969 34.332031 15.632812 35.054688 15.820312 L 37.757812 16.511719 C 37.921875 16.550781 38.09375 16.503906 38.210938 16.386719 L 40.203125 14.335938 C 40.550781 13.980469 41.195312 14.019531 41.644531 14.425781 L 43.78125 16.355469 C 44.019531 16.570312 44.160156 16.855469 44.167969 17.136719 C 44.171875 17.289062 44.140625 17.503906 43.964844 17.6875 L 41.96875 19.738281 C 41.847656 19.867188 41.804688 20.050781 41.863281 20.21875 L 42.753906 22.777344 C 43.609375 25.226562 43.195312 27.75 41.652344 29.535156 L 33.558594 38.875 C 33.179688 39.3125 32.617188 39.578125 31.976562 39.617188 C 31.183594 39.671875 30.363281 39.367188 29.730469 38.792969 L 19.273438 29.339844 C 18.648438 28.773438 18.289062 28.015625 18.289062 27.261719 C 18.285156 26.652344 18.519531 26.101562 18.949219 25.707031 Z M 10.34375 23.761719 C 11.140625 24.199219 11.996094 24.421875 12.910156 24.421875 C 13.199219 24.421875 13.496094 24.398438 13.792969 24.351562 C 13.292969 24.898438 12.589844 25.304688 11.671875 25.585938 C 11.082031 24.972656 10.628906 24.347656 10.34375 23.761719 Z M 14.742188 24.675781 C 14.890625 24.953125 15.085938 25.242188 15.339844 25.484375 C 14.957031 26.234375 14.21875 26.675781 13.109375 26.832031 C 12.875 26.660156 12.652344 26.488281 12.441406 26.3125 C 13.4375 25.929688 14.207031 25.386719 14.742188 24.675781 Z M 18.519531 29.90625 C 18.5625 29.949219 18.601562 29.992188 18.648438 30.035156 L 23.109375 34.070312 C 22.410156 34 21.386719 33.773438 20.097656 33.148438 C 18.730469 32.488281 17.925781 31.375 17.148438 30.296875 C 16.960938 30.042969 16.78125 29.792969 16.59375 29.550781 C 17.210938 29.71875 17.855469 29.84375 18.519531 29.90625 Z M 17.554688 26.148438 C 17.421875 26.496094 17.347656 26.871094 17.351562 27.265625 C 17.351562 27.808594 17.492188 28.351562 17.746094 28.851562 C 16.453125 28.613281 15.253906 28.144531 14.203125 27.542969 C 14.539062 27.433594 14.839844 27.285156 15.105469 27.109375 L 16.007812 27.507812 C 16.070312 27.53125 16.132812 27.546875 16.195312 27.546875 C 16.375 27.546875 16.546875 27.441406 16.625 27.265625 C 16.730469 27.027344 16.621094 26.753906 16.386719 26.648438 L 15.859375 26.417969 C 15.964844 26.273438 16.066406 26.125 16.148438 25.960938 C 16.597656 26.105469 17.121094 26.148438 17.554688 26.148438 Z M 17.4375 20.28125 C 17.683594 21.683594 17.210938 22.902344 16.632812 23.230469 C 16.207031 23.46875 15.421875 23.320312 15.066406 23.222656 C 14.835938 22.984375 14.0625 22.105469 14.101562 21.015625 C 14.140625 20.070312 15.058594 18.960938 15.582031 18.4375 C 15.835938 18.519531 16.074219 18.625 16.292969 18.757812 C 16.914062 19.140625 17.332031 19.695312 17.4375 20.28125 Z M 14.484375 18.25 C 13.925781 18.902344 13.207031 19.933594 13.167969 20.976562 C 13.140625 21.625 13.320312 22.203125 13.554688 22.679688 C 13.035156 22.398438 12.511719 21.976562 12.269531 21.363281 C 11.796875 20.183594 12.375 18.925781 12.613281 18.546875 C 12.683594 18.519531 12.753906 18.492188 12.832031 18.46875 C 13.394531 18.296875 13.953125 18.226562 14.484375 18.25 Z M 11.316406 19.242188 C 11.132812 19.910156 11.035156 20.800781 11.398438 21.710938 C 11.734375 22.550781 12.40625 23.109375 13.0625 23.472656 C 11.917969 23.507812 10.894531 23.144531 9.964844 22.363281 C 9.886719 21.246094 10.28125 20.0625 11.316406 19.242188 Z M 16.105469 39.230469 C 16.09375 39.117188 16.128906 39.003906 16.207031 38.914062 C 16.292969 38.816406 16.417969 38.757812 16.554688 38.757812 L 16.996094 38.746094 C 17.140625 38.730469 17.277344 38.800781 17.371094 38.902344 C 17.421875 38.957031 17.5 39.074219 17.480469 39.238281 L 17.375 40.089844 C 17.335938 40.074219 17.300781 40.050781 17.257812 40.039062 C 16.867188 39.902344 16.511719 39.910156 16.191406 39.992188 Z M 13.726562 46.175781 C 13.023438 46.335938 12.378906 46.4375 11.789062 46.480469 C 12.375 45.273438 12.527344 44.015625 12.25 42.726562 C 12.535156 42.804688 12.816406 42.859375 13.09375 42.871094 C 13.902344 43.796875 14.144531 44.871094 13.832031 46.144531 C 13.796875 46.15625 13.761719 46.167969 13.726562 46.175781 Z M 14.113281 42.648438 C 14.339844 42.539062 14.546875 42.390625 14.742188 42.230469 C 15.664062 42.492188 16.339844 43.035156 16.789062 43.882812 C 16.390625 44.601562 15.761719 45.296875 14.855469 45.761719 C 15.007812 44.609375 14.765625 43.566406 14.113281 42.648438 Z M 16.960938 40.925781 C 17.21875 41.011719 17.375 41.46875 17.34375 42.058594 C 17.332031 42.289062 17.292969 42.546875 17.21875 42.816406 C 16.777344 42.230469 16.207031 41.796875 15.519531 41.511719 C 16.050781 41.019531 16.445312 40.75 16.960938 40.925781 Z M 9 42.164062 C 9.214844 42.0625 9.445312 42.019531 9.6875 42.019531 C 10.152344 42.019531 10.660156 42.179688 11.1875 42.367188 C 11.652344 43.804688 11.5 45.152344 10.730469 46.476562 C 9.542969 46.386719 8.6875 45.976562 8.222656 45.234375 C 7.976562 44.839844 7.835938 44.0625 8.046875 43.339844 C 8.15625 42.960938 8.410156 42.449219 9 42.164062 Z M 1.375 40.566406 C 0.90625 39.394531 0.859375 38.417969 1.234375 37.746094 C 1.574219 37.144531 2.164062 36.925781 2.363281 36.890625 C 2.398438 36.886719 2.460938 36.878906 2.546875 36.878906 C 2.871094 36.878906 3.496094 37 3.886719 37.84375 C 4.03125 38.160156 4.074219 38.8125 4.121094 39.503906 C 4.191406 40.542969 4.285156 41.863281 4.769531 43.054688 C 4.777344 43.074219 4.785156 43.09375 4.796875 43.113281 C 4.839844 43.214844 4.878906 43.320312 4.929688 43.421875 C 3.871094 43.199219 2.164062 42.535156 1.375 40.566406 Z M 3.753906 49.148438 C 3.613281 48.742188 3.628906 48.316406 3.804688 47.878906 C 4.074219 47.191406 3.867188 46.410156 3.28125 45.9375 C 2.929688 45.652344 2.351562 45.089844 2.449219 44.546875 C 2.496094 44.296875 2.769531 44.039062 3.207031 43.828125 C 4.488281 44.449219 5.691406 44.46875 5.835938 44.46875 C 5.839844 44.46875 5.84375 44.46875 5.847656 44.46875 C 6.027344 44.46875 6.1875 44.363281 6.265625 44.203125 C 6.34375 44.042969 6.320312 43.851562 6.210938 43.710938 C 6.117188 43.589844 6.035156 43.460938 5.957031 43.332031 C 6.335938 43.339844 6.710938 43.375 7.066406 43.4375 C 6.921875 44.25 7.054688 45.132812 7.429688 45.730469 C 7.929688 46.535156 8.933594 47.335938 10.898438 47.417969 C 10.929688 47.425781 10.957031 47.433594 10.988281 47.433594 C 11.003906 47.433594 11.019531 47.429688 11.035156 47.425781 C 11.097656 47.429688 11.15625 47.4375 11.222656 47.4375 C 11.984375 47.4375 12.882812 47.332031 13.941406 47.085938 C 14.078125 47.054688 14.210938 47.015625 14.34375 46.976562 C 14.355469 46.972656 14.367188 46.96875 14.378906 46.964844 C 16.824219 46.195312 18.1875 43.992188 18.28125 42.105469 C 18.300781 41.746094 18.265625 41.429688 18.1875 41.148438 L 18.414062 39.351562 C 18.460938 38.960938 18.335938 38.566406 18.070312 38.273438 C 17.792969 37.96875 17.402344 37.808594 16.976562 37.808594 L 16.535156 37.820312 C 16.136719 37.828125 15.761719 38.003906 15.503906 38.296875 C 15.253906 38.585938 15.132812 38.960938 15.175781 39.335938 L 15.304688 40.460938 C 15.140625 40.589844 14.984375 40.726562 14.839844 40.867188 C 14.210938 40.777344 12.25 40.378906 11.765625 38.871094 C 11.449219 37.890625 11.714844 37.324219 12.023438 36.675781 C 12.292969 36.101562 12.601562 35.453125 12.378906 34.585938 C 12.1875 33.835938 11.214844 33.101562 9.640625 31.960938 C 8.066406 30.820312 5.910156 29.257812 6.285156 28.25 C 6.398438 27.941406 6.644531 27.714844 7.039062 27.554688 C 8.6875 26.886719 12.285156 27.699219 14.136719 28.578125 C 15.066406 29.019531 15.707031 29.90625 16.390625 30.847656 C 17.195312 31.964844 18.113281 33.230469 19.6875 33.992188 C 21.988281 35.105469 23.558594 35.078125 24.148438 35.011719 L 29.105469 39.488281 C 29.863281 40.175781 30.839844 40.558594 31.8125 40.558594 C 31.886719 40.558594 31.960938 40.558594 32.035156 40.550781 C 32.929688 40.5 33.722656 40.121094 34.269531 39.488281 L 34.757812 38.925781 C 34.777344 39.425781 34.871094 39.96875 35.128906 40.410156 C 35.378906 40.847656 35.726562 41.191406 36.054688 41.445312 L 6.09375 50.535156 C 5.453125 50.410156 4.039062 49.972656 3.753906 49.148438 Z M 46.160156 48.355469 L 11.863281 58.757812 C 8.398438 59.8125 4.695312 57.953125 3.605469 54.617188 L 2.910156 52.476562 L 49.757812 38.269531 L 50.460938 40.425781 C 50.972656 42 50.832031 43.679688 50.0625 45.15625 C 49.257812 46.699219 47.871094 47.835938 46.160156 48.355469 Z M 46.160156 48.355469 " fill-opacity="1" fill-rule="nonzero"/></g><path fill="#4f4f1a" d="M 20.867188 27.460938 C 21.132812 27.726562 21.488281 27.863281 21.839844 27.863281 C 22.160156 27.863281 22.476562 27.753906 22.722656 27.527344 L 31.632812 19.386719 C 31.886719 19.15625 32.027344 18.839844 32.035156 18.5 C 32.046875 18.144531 31.910156 17.808594 31.652344 17.550781 C 31.148438 17.039062 30.316406 17.007812 29.796875 17.480469 L 20.886719 25.621094 C 20.632812 25.851562 20.492188 26.167969 20.480469 26.511719 C 20.472656 26.863281 20.609375 27.199219 20.867188 27.460938 Z M 21.519531 26.3125 L 30.429688 18.171875 C 30.578125 18.039062 30.835938 18.054688 30.988281 18.210938 C 31.0625 18.285156 31.101562 18.378906 31.101562 18.476562 C 31.097656 18.535156 31.078125 18.621094 31 18.695312 L 22.089844 26.835938 C 21.941406 26.972656 21.683594 26.953125 21.53125 26.800781 C 21.457031 26.722656 21.417969 26.628906 21.417969 26.535156 C 21.421875 26.472656 21.4375 26.386719 21.519531 26.3125 Z M 21.519531 26.3125 " fill-opacity="1" fill-rule="nonzero"/><path fill="#4f4f1a" d="M 23.839844 29.917969 C 23.851562 30.269531 24.003906 30.59375 24.269531 30.835938 C 24.523438 31.066406 24.851562 31.179688 25.179688 31.179688 C 25.535156 31.179688 25.886719 31.042969 26.148438 30.777344 L 34.644531 22.042969 C 34.890625 21.785156 35.023438 21.453125 35.011719 21.101562 C 35 20.746094 34.847656 20.421875 34.582031 20.179688 C 34.046875 19.695312 33.203125 19.726562 32.699219 20.242188 L 24.207031 28.972656 C 23.960938 29.230469 23.828125 29.5625 23.839844 29.917969 Z M 24.878906 29.628906 L 33.371094 20.894531 C 33.453125 20.8125 33.5625 20.769531 33.671875 20.769531 C 33.773438 20.769531 33.875 20.804688 33.953125 20.875 C 34.027344 20.945312 34.070312 21.035156 34.074219 21.128906 C 34.078125 21.226562 34.039062 21.316406 33.972656 21.390625 L 25.476562 30.121094 C 25.328125 30.28125 25.058594 30.285156 24.898438 30.140625 C 24.824219 30.070312 24.78125 29.980469 24.777344 29.886719 C 24.773438 29.789062 24.808594 29.699219 24.878906 29.628906 Z M 24.878906 29.628906 " fill-opacity="1" fill-rule="nonzero"/><path fill="#4f4f1a" d="M 27.484375 33.210938 C 27.496094 33.566406 27.648438 33.890625 27.914062 34.128906 C 28.171875 34.363281 28.496094 34.476562 28.824219 34.476562 C 29.179688 34.476562 29.53125 34.339844 29.796875 34.070312 L 38.289062 25.335938 C 38.535156 25.082031 38.667969 24.746094 38.65625 24.394531 C 38.644531 24.042969 38.492188 23.714844 38.226562 23.476562 C 37.691406 22.992188 36.847656 23.019531 36.347656 23.535156 L 27.851562 32.269531 C 27.605469 32.523438 27.472656 32.859375 27.484375 33.210938 Z M 28.523438 32.921875 L 37.015625 24.1875 C 37.097656 24.109375 37.207031 24.066406 37.316406 24.066406 C 37.417969 24.066406 37.519531 24.101562 37.597656 24.171875 C 37.671875 24.238281 37.714844 24.328125 37.71875 24.425781 C 37.722656 24.519531 37.683594 24.613281 37.617188 24.683594 L 29.121094 33.417969 C 28.96875 33.574219 28.703125 33.582031 28.542969 33.433594 C 28.46875 33.367188 28.425781 33.277344 28.421875 33.183594 C 28.417969 33.085938 28.457031 32.996094 28.523438 32.921875 Z M 28.523438 32.921875 " fill-opacity="1" fill-rule="nonzero"/><path fill="#4f4f1a" d="M 31.136719 36.285156 C 31.167969 36.636719 31.34375 36.957031 31.625 37.1875 C 31.878906 37.394531 32.183594 37.492188 32.488281 37.492188 C 32.859375 37.492188 33.222656 37.34375 33.476562 37.050781 L 41.328125 27.957031 C 41.550781 27.699219 41.65625 27.371094 41.625 27.03125 C 41.59375 26.675781 41.421875 26.355469 41.136719 26.125 C 40.578125 25.671875 39.746094 25.730469 39.289062 26.261719 L 31.433594 35.359375 C 31.214844 35.617188 31.109375 35.945312 31.136719 36.285156 Z M 32.144531 35.972656 L 39.996094 26.875 C 40.066406 26.796875 40.167969 26.757812 40.273438 26.757812 C 40.371094 26.757812 40.46875 26.789062 40.546875 26.855469 C 40.632812 26.921875 40.683594 27.015625 40.691406 27.113281 C 40.699219 27.175781 40.691406 27.261719 40.621094 27.34375 L 32.765625 36.4375 C 32.636719 36.589844 32.386719 36.597656 32.214844 36.460938 C 32.128906 36.390625 32.078125 36.300781 32.070312 36.199219 C 32.066406 36.140625 32.074219 36.054688 32.144531 35.972656 Z M 32.144531 35.972656 " fill-opacity="1" fill-rule="nonzero"/><path fill="#4f4f1a" d="M 24.640625 38.199219 C 24.773438 37.78125 24.808594 37.308594 24.742188 36.78125 C 24.710938 36.523438 24.476562 36.34375 24.21875 36.375 C 23.964844 36.40625 23.78125 36.640625 23.8125 36.898438 C 23.863281 37.28125 23.839844 37.613281 23.757812 37.890625 C 23.070312 37.816406 22.203125 38.023438 21.539062 38.855469 C 21.234375 39.234375 21.058594 39.832031 20.855469 40.527344 C 20.519531 41.671875 20.101562 43.089844 19 43.953125 C 18.855469 44.066406 18.789062 44.257812 18.835938 44.4375 C 18.878906 44.617188 19.027344 44.753906 19.210938 44.785156 C 19.253906 44.792969 19.601562 44.847656 20.121094 44.847656 C 21.339844 44.847656 23.503906 44.539062 24.902344 42.570312 C 25.71875 41.421875 25.984375 40.382812 25.683594 39.484375 C 25.476562 38.855469 25.03125 38.441406 24.640625 38.199219 Z M 24.140625 42.027344 C 23.0625 43.542969 21.410156 43.871094 20.355469 43.90625 C 21.125 42.925781 21.480469 41.726562 21.753906 40.792969 C 21.921875 40.21875 22.082031 39.675781 22.269531 39.4375 C 22.683594 38.921875 23.160156 38.8125 23.492188 38.8125 C 23.707031 38.8125 23.859375 38.855469 23.894531 38.871094 C 24.070312 38.925781 24.605469 39.210938 24.796875 39.78125 C 24.992188 40.371094 24.765625 41.148438 24.140625 42.027344 Z M 24.140625 42.027344 " fill-opacity="1" fill-rule="nonzero"/><path fill="#4f4f1a" d="M 6.316406 46.519531 C 5.3125 46.519531 4.527344 47.128906 4.527344 47.90625 C 4.527344 48.683594 5.3125 49.289062 6.316406 49.289062 C 7.320312 49.289062 8.109375 48.683594 8.109375 47.90625 C 8.109375 47.128906 7.320312 46.519531 6.316406 46.519531 Z M 6.316406 48.355469 C 5.796875 48.355469 5.464844 48.089844 5.464844 47.90625 C 5.464844 47.722656 5.796875 47.457031 6.316406 47.457031 C 6.839844 47.457031 7.171875 47.722656 7.171875 47.90625 C 7.171875 48.089844 6.839844 48.355469 6.316406 48.355469 Z M 6.316406 48.355469 " fill-opacity="1" fill-rule="nonzero"/><path fill="#4f4f1a" d="M 7.066406 37.230469 C 7.578125 37.230469 10.082031 36.800781 10.082031 35.648438 C 10.082031 34.5 7.578125 34.070312 7.066406 34.070312 C 6.171875 34.070312 5.445312 34.78125 5.445312 35.648438 C 5.445312 36.519531 6.171875 37.230469 7.066406 37.230469 Z M 7.066406 35.007812 C 7.605469 35.007812 8.8125 35.371094 9.109375 35.648438 C 8.8125 35.929688 7.605469 36.292969 7.066406 36.292969 C 6.6875 36.292969 6.382812 36.003906 6.382812 35.648438 C 6.382812 35.296875 6.6875 35.007812 7.066406 35.007812 Z M 7.066406 35.007812 " fill-opacity="1" fill-rule="nonzero"/><path fill="#4f4f1a" d="M 6.261719 25.078125 C 7.089844 25.078125 7.761719 24.421875 7.761719 23.613281 C 7.761719 22.808594 7.089844 22.152344 6.261719 22.152344 C 5.433594 22.152344 4.761719 22.808594 4.761719 23.613281 C 4.761719 24.421875 5.433594 25.078125 6.261719 25.078125 Z M 6.261719 23.089844 C 6.574219 23.089844 6.824219 23.324219 6.824219 23.613281 C 6.824219 23.90625 6.574219 24.140625 6.261719 24.140625 C 5.953125 24.140625 5.699219 23.90625 5.699219 23.613281 C 5.699219 23.324219 5.953125 23.089844 6.261719 23.089844 Z M 6.261719 23.089844 " fill-opacity="1" fill-rule="nonzero"/><path fill="#4f4f1a" d="M 15.660156 31.574219 C 15.464844 30.84375 14.570312 29.960938 13.332031 29.269531 C 11.863281 28.453125 10.027344 28 9.464844 28.941406 C 9.367188 29.101562 9.277344 29.367188 9.375 29.742188 C 9.570312 30.472656 10.464844 31.355469 11.703125 32.046875 C 12.589844 32.542969 13.613281 32.902344 14.40625 32.902344 C 14.925781 32.902344 15.347656 32.746094 15.570312 32.375 C 15.667969 32.214844 15.757812 31.949219 15.660156 31.574219 Z M 12.160156 31.226562 C 10.734375 30.4375 10.222656 29.601562 10.265625 29.425781 C 10.308594 29.382812 10.425781 29.351562 10.601562 29.351562 C 11.046875 29.351562 11.875 29.53125 12.875 30.085938 C 14.300781 30.878906 14.8125 31.714844 14.769531 31.890625 C 14.625 32.046875 13.558594 32.007812 12.160156 31.226562 Z M 12.160156 31.226562 " fill-opacity="1" fill-rule="nonzero"/><path fill="#4f4f1a" d="M 17.035156 33.886719 C 16.191406 33.886719 15.503906 34.558594 15.503906 35.382812 C 15.503906 36.207031 16.191406 36.875 17.035156 36.875 C 17.878906 36.875 18.566406 36.207031 18.566406 35.382812 C 18.566406 34.558594 17.878906 33.886719 17.035156 33.886719 Z M 17.035156 35.941406 C 16.707031 35.941406 16.4375 35.691406 16.4375 35.382812 C 16.4375 35.074219 16.707031 34.824219 17.035156 34.824219 C 17.363281 34.824219 17.628906 35.074219 17.628906 35.382812 C 17.628906 35.691406 17.363281 35.941406 17.035156 35.941406 Z M 17.035156 35.941406 " fill-opacity="1" fill-rule="nonzero"/><g clip-path="url(#c79fe31049)"><path fill="#4f4f1a" d="M 22.472656 9.402344 L 27.152344 10.316406 C 27.332031 10.351562 27.507812 10.367188 27.683594 10.367188 C 28.941406 10.367188 30.074219 9.507812 30.335938 8.269531 C 30.441406 7.765625 30.339844 7.25 30.054688 6.820312 C 29.863281 6.53125 29.601562 6.3125 29.300781 6.160156 C 29.445312 5.820312 29.441406 5.445312 29.300781 5.109375 L 30.890625 1.625 C 31 1.390625 30.894531 1.113281 30.660156 1.003906 C 30.425781 0.898438 30.144531 1 30.039062 1.238281 L 28.605469 4.371094 C 28.503906 4.324219 28.398438 4.285156 28.285156 4.261719 L 23.960938 3.367188 C 23.875 3.351562 23.789062 3.34375 23.703125 3.34375 L 23.953125 1.496094 C 23.984375 1.238281 23.804688 1 23.550781 0.96875 C 23.292969 0.933594 23.058594 1.113281 23.023438 1.371094 L 22.710938 3.707031 C 22.464844 3.925781 22.304688 4.210938 22.257812 4.53125 L 22.226562 4.753906 C 21.332031 4.800781 20.542969 5.417969 20.355469 6.308594 C 20.214844 6.980469 20.347656 7.671875 20.730469 8.25 C 21.128906 8.851562 21.746094 9.261719 22.472656 9.402344 Z M 28.09375 5.179688 C 28.242188 5.210938 28.363281 5.300781 28.425781 5.425781 C 28.460938 5.496094 28.507812 5.632812 28.4375 5.792969 L 28.394531 5.890625 L 23.15625 4.871094 L 23.183594 4.667969 C 23.199219 4.546875 23.269531 4.441406 23.371094 4.367188 C 23.488281 4.289062 23.632812 4.257812 23.769531 4.285156 Z M 21.273438 6.5 C 21.375 6.015625 21.820312 5.683594 22.320312 5.683594 C 22.390625 5.683594 22.464844 5.691406 22.535156 5.703125 L 28.582031 6.882812 C 28.871094 6.941406 29.117188 7.101562 29.273438 7.339844 C 29.421875 7.558594 29.472656 7.820312 29.417969 8.078125 C 29.226562 8.992188 28.289062 9.585938 27.332031 9.398438 L 22.648438 8.484375 C 22.175781 8.390625 21.769531 8.125 21.511719 7.734375 C 21.269531 7.363281 21.183594 6.925781 21.273438 6.5 Z M 21.273438 6.5 " fill-opacity="1" fill-rule="nonzero"/></g><path fill="#4f4f1a" d="M 25.105469 8.398438 C 25.378906 8.398438 25.601562 8.183594 25.601562 7.917969 C 25.601562 7.652344 25.378906 7.441406 25.105469 7.441406 C 24.832031 7.441406 24.609375 7.652344 24.609375 7.917969 C 24.609375 8.183594 24.832031 8.398438 25.105469 8.398438 Z M 25.105469 8.398438 " fill-opacity="1" fill-rule="nonzero"/><path fill="#4f4f1a" d="M 22.863281 7.917969 C 23.136719 7.917969 23.359375 7.703125 23.359375 7.441406 C 23.359375 7.175781 23.136719 6.960938 22.863281 6.960938 C 22.589844 6.960938 22.367188 7.175781 22.367188 7.441406 C 22.367188 7.703125 22.589844 7.917969 22.863281 7.917969 Z M 22.863281 7.917969 " fill-opacity="1" fill-rule="nonzero"/><path fill="#4f4f1a" d="M 27.535156 8.875 C 27.808594 8.875 28.03125 8.660156 28.03125 8.398438 C 28.03125 8.132812 27.808594 7.917969 27.535156 7.917969 C 27.257812 7.917969 27.035156 8.132812 27.035156 8.398438 C 27.035156 8.660156 27.257812 8.875 27.535156 8.875 Z M 27.535156 8.875 " fill-opacity="1" fill-rule="nonzero"/><path fill="#4f4f1a" d="M 17.90625 10.433594 C 17.90625 10.566406 17.859375 10.679688 17.761719 10.773438 C 17.664062 10.867188 17.546875 10.914062 17.410156 10.914062 C 17.273438 10.914062 17.15625 10.867188 17.058594 10.773438 C 16.960938 10.679688 16.914062 10.566406 16.914062 10.433594 C 16.914062 10.300781 16.960938 10.1875 17.058594 10.09375 C 17.15625 10 17.273438 9.957031 17.410156 9.957031 C 17.546875 9.957031 17.664062 10 17.761719 10.09375 C 17.859375 10.1875 17.90625 10.300781 17.90625 10.433594 Z M 17.90625 10.433594 " fill-opacity="1" fill-rule="nonzero"/><path fill="#4f4f1a" d="M 14.546875 15.484375 C 14.546875 15.75 14.765625 15.964844 15.042969 15.964844 C 15.316406 15.964844 15.539062 15.75 15.539062 15.484375 C 15.539062 15.222656 15.316406 15.007812 15.042969 15.007812 C 14.769531 15.007812 14.546875 15.222656 14.546875 15.484375 Z M 14.546875 15.484375 " fill-opacity="1" fill-rule="nonzero"/><path fill="#4f4f1a" d="M 10.957031 16.585938 C 11.230469 16.585938 11.453125 16.371094 11.453125 16.109375 C 11.453125 15.84375 11.230469 15.628906 10.957031 15.628906 C 10.683594 15.628906 10.460938 15.84375 10.460938 16.109375 C 10.460938 16.375 10.683594 16.585938 10.957031 16.585938 Z M 10.957031 16.585938 " fill-opacity="1" fill-rule="nonzero"/><path fill="#4f4f1a" d="M 14.820312 13.242188 C 15.097656 13.242188 15.316406 13.027344 15.316406 12.765625 C 15.316406 12.5 15.097656 12.285156 14.820312 12.285156 C 14.546875 12.285156 14.324219 12.5 14.324219 12.765625 C 14.324219 13.027344 14.546875 13.242188 14.820312 13.242188 Z M 14.820312 13.242188 " fill-opacity="1" fill-rule="nonzero"/><path fill="#4f4f1a" d="M 17.410156 14.355469 C 17.683594 14.355469 17.90625 14.140625 17.90625 13.878906 C 17.90625 13.613281 17.683594 13.398438 17.410156 13.398438 C 17.136719 13.398438 16.914062 13.613281 16.914062 13.878906 C 16.914062 14.144531 17.136719 14.355469 17.410156 14.355469 Z M 17.410156 14.355469 " fill-opacity="1" fill-rule="nonzero"/><path fill="#4f4f1a" d="M 19.628906 18.246094 C 19.902344 18.246094 20.125 18.03125 20.125 17.769531 C 20.125 17.503906 19.902344 17.289062 19.628906 17.289062 C 19.355469 17.289062 19.132812 17.503906 19.132812 17.769531 C 19.132812 18.03125 19.355469 18.246094 19.628906 18.246094 Z M 19.628906 18.246094 " fill-opacity="1" fill-rule="nonzero"/><path fill="#4f4f1a" d="M 19.34375 21.800781 C 19.34375 22.066406 19.566406 22.28125 19.839844 22.28125 C 20.117188 22.28125 20.339844 22.066406 20.339844 21.800781 C 20.339844 21.535156 20.117188 21.320312 19.839844 21.320312 C 19.566406 21.320312 19.34375 21.535156 19.34375 21.800781 Z M 19.34375 21.800781 " fill-opacity="1" fill-rule="nonzero"/><path fill="#4f4f1a" d="M 8.359375 19.621094 C 8.359375 19.753906 8.3125 19.867188 8.214844 19.960938 C 8.117188 20.054688 8 20.101562 7.863281 20.101562 C 7.726562 20.101562 7.609375 20.054688 7.511719 19.960938 C 7.414062 19.867188 7.367188 19.753906 7.367188 19.621094 C 7.367188 19.492188 7.414062 19.378906 7.511719 19.285156 C 7.609375 19.191406 7.726562 19.144531 7.863281 19.144531 C 8 19.144531 8.117188 19.191406 8.214844 19.285156 C 8.3125 19.378906 8.359375 19.492188 8.359375 19.621094 Z M 8.359375 19.621094 " fill-opacity="1" fill-rule="nonzero"/><path fill="#4f4f1a" d="M 21.097656 15.628906 C 21.097656 15.894531 21.320312 16.109375 21.59375 16.109375 C 21.867188 16.109375 22.089844 15.894531 22.089844 15.628906 C 22.089844 15.367188 21.867188 15.152344 21.59375 15.152344 C 21.320312 15.152344 21.097656 15.367188 21.097656 15.628906 Z M 21.097656 15.628906 " fill-opacity="1" fill-rule="nonzero"/><path fill="#4f4f1a" d="M 20.125 12.605469 C 20.398438 12.605469 20.621094 12.390625 20.621094 12.125 C 20.621094 11.863281 20.398438 11.648438 20.125 11.648438 C 19.851562 11.648438 19.628906 11.863281 19.628906 12.125 C 19.628906 12.390625 19.851562 12.605469 20.125 12.605469 Z M 20.125 12.605469 " fill-opacity="1" fill-rule="nonzero"/><path fill="#4f4f1a" d="M 22.929688 10.671875 C 22.792969 10.902344 22.875 11.195312 23.109375 11.328125 C 23.347656 11.460938 23.652344 11.382812 23.789062 11.152344 C 23.925781 10.921875 23.84375 10.628906 23.605469 10.5 C 23.371094 10.367188 23.066406 10.445312 22.929688 10.671875 Z M 22.929688 10.671875 " fill-opacity="1" fill-rule="nonzero"/><path fill="#4f4f1a" d="M 19.378906 15.566406 C 19.617188 15.699219 19.921875 15.621094 20.058594 15.390625 C 20.195312 15.160156 20.113281 14.867188 19.875 14.738281 C 19.636719 14.605469 19.335938 14.683594 19.199219 14.910156 C 19.0625 15.140625 19.140625 15.433594 19.378906 15.566406 Z M 19.378906 15.566406 " fill-opacity="1" fill-rule="nonzero"/><path fill="#4f4f1a" d="M 26.972656 11.535156 C 26.734375 11.40625 26.433594 11.484375 26.296875 11.710938 C 26.15625 11.941406 26.238281 12.234375 26.476562 12.367188 C 26.714844 12.5 27.019531 12.417969 27.15625 12.191406 C 27.292969 11.960938 27.210938 11.667969 26.972656 11.535156 Z M 26.972656 11.535156 " fill-opacity="1" fill-rule="nonzero"/><path fill="#4f4f1a" d="M 29.871094 10.5 C 29.734375 10.726562 29.816406 11.019531 30.054688 11.152344 C 30.292969 11.285156 30.59375 11.207031 30.730469 10.976562 C 30.871094 10.746094 30.789062 10.453125 30.550781 10.324219 C 30.3125 10.191406 30.007812 10.269531 29.871094 10.5 Z M 29.871094 10.5 " fill-opacity="1" fill-rule="nonzero"/><path fill="#4f4f1a" d="M 31.703125 14.042969 C 31.9375 14.171875 32.242188 14.09375 32.378906 13.867188 C 32.515625 13.636719 32.4375 13.34375 32.199219 13.210938 C 31.960938 13.078125 31.65625 13.15625 31.519531 13.386719 C 31.382812 13.617188 31.464844 13.910156 31.703125 14.042969 Z M 31.703125 14.042969 " fill-opacity="1" fill-rule="nonzero"/></svg>