<svg xmlns="http://www.w3.org/2000/svg" xmlns:xlink="http://www.w3.org/1999/xlink" width="80" zoomAndPan="magnify" viewBox="0 0 60 60" height="80" preserveAspectRatio="xMidYMid meet" version="1.0"><defs><clipPath id="0a6d863f58"><path d="M 1.316406 27 L 58.316406 27 L 58.316406 60 L 1.316406 60 Z M 1.316406 27 " clip-rule="nonzero"/></clipPath></defs><path fill="#7e7f25" d="M 23.453125 40.382812 C 20.160156 42.910156 17.871094 46.261719 16.453125 50.628906 C 16.285156 51.148438 16.570312 51.707031 17.089844 51.875 C 17.191406 51.90625 17.292969 51.921875 17.394531 51.921875 C 17.8125 51.921875 18.199219 51.65625 18.335938 51.238281 C 19.625 47.265625 21.695312 44.230469 24.660156 41.953125 C 25.09375 41.621094 25.175781 41 24.839844 40.566406 C 24.507812 40.132812 23.886719 40.050781 23.453125 40.382812 Z M 23.453125 40.382812 " fill-opacity="1" fill-rule="nonzero"/><g clip-path="url(#0a6d863f58)"><path fill="#7e7f25" d="M 57.683594 54.515625 L 50.492188 54.515625 C 50.152344 44.4375 42.511719 36.183594 32.703125 34.882812 C 33.363281 33.8125 33.8125 32.324219 33.9375 30.582031 C 34.003906 29.675781 33.566406 28.8125 32.796875 28.324219 C 31.097656 27.25 28.898438 27.25 27.199219 28.324219 C 26.429688 28.8125 25.992188 29.675781 26.058594 30.582031 C 26.183594 32.324219 26.632812 33.8125 27.292969 34.882812 C 17.484375 36.183594 9.84375 44.4375 9.503906 54.515625 L 2.3125 54.515625 C 1.765625 54.515625 1.320312 54.960938 1.320312 55.503906 C 1.320312 56.050781 1.765625 56.496094 2.3125 56.496094 L 4.148438 56.496094 L 5.273438 58.796875 C 5.628906 59.527344 6.386719 60 7.203125 60 L 52.792969 60 C 53.609375 60 54.367188 59.527344 54.722656 58.796875 L 55.847656 56.496094 L 57.683594 56.496094 C 58.230469 56.496094 58.675781 56.050781 58.675781 55.503906 C 58.675781 54.960938 58.230469 54.515625 57.683594 54.515625 Z M 28.035156 30.4375 C 28.019531 30.261719 28.105469 30.09375 28.257812 30 C 28.785156 29.664062 29.390625 29.5 29.996094 29.5 C 30.605469 29.5 31.210938 29.664062 31.738281 30 C 31.890625 30.09375 31.976562 30.261719 31.960938 30.4375 C 31.765625 33.1875 30.675781 34.707031 29.996094 34.707031 C 29.320312 34.707031 28.230469 33.1875 28.035156 30.4375 Z M 29.996094 36.6875 C 39.980469 36.6875 48.144531 44.621094 48.511719 54.515625 L 11.484375 54.515625 C 11.851562 44.621094 20.015625 36.6875 29.996094 36.6875 Z M 52.945312 57.925781 C 52.917969 57.984375 52.859375 58.019531 52.792969 58.019531 L 7.203125 58.019531 C 7.136719 58.019531 7.078125 57.984375 7.050781 57.925781 L 6.351562 56.496094 L 53.644531 56.496094 Z M 52.945312 57.925781 " fill-opacity="1" fill-rule="nonzero"/></g><path fill="#7e7f25" d="M 30.304688 23.855469 C 30.460938 23.949219 30.632812 23.992188 30.800781 23.992188 C 31.144531 23.992188 31.472656 23.816406 31.65625 23.5 C 31.933594 23.03125 31.773438 22.421875 31.304688 22.148438 C 30.167969 21.484375 29.527344 20.796875 29.402344 20.109375 C 29.179688 18.898438 30.449219 17.316406 31.679688 15.785156 C 33.75 13.214844 36.582031 9.691406 32.527344 6.347656 C 32.105469 6 31.484375 6.058594 31.132812 6.480469 C 30.785156 6.902344 30.847656 7.527344 31.269531 7.875 C 33.570312 9.777344 32.691406 11.367188 30.136719 14.546875 C 28.628906 16.421875 27.066406 18.367188 27.453125 20.464844 C 27.691406 21.765625 28.625 22.875 30.304688 23.855469 Z M 30.304688 23.855469 " fill-opacity="1" fill-rule="nonzero"/><path fill="#7e7f25" d="M 22.1875 27.234375 C 22.34375 27.328125 22.515625 27.371094 22.6875 27.371094 C 23.027344 27.371094 23.359375 27.195312 23.542969 26.882812 C 23.816406 26.410156 23.660156 25.804688 23.1875 25.527344 C 22.234375 24.96875 21.695312 24.402344 21.59375 23.839844 C 21.410156 22.847656 22.5 21.496094 23.550781 20.1875 C 24.519531 18.980469 25.523438 17.734375 25.921875 16.375 C 26.429688 14.660156 25.871094 13.117188 24.269531 11.796875 C 23.847656 11.449219 23.222656 11.507812 22.875 11.929688 C 22.527344 12.351562 22.589844 12.976562 23.007812 13.324219 C 24.933594 14.910156 24.222656 16.191406 22.007812 18.945312 C 20.675781 20.601562 19.300781 22.3125 19.648438 24.199219 C 19.863281 25.367188 20.691406 26.363281 22.1875 27.234375 Z M 22.1875 27.234375 " fill-opacity="1" fill-rule="nonzero"/><path fill="#7e7f25" d="M 33.949219 24.199219 C 34.164062 25.367188 34.992188 26.363281 36.488281 27.234375 C 36.644531 27.328125 36.816406 27.371094 36.988281 27.371094 C 37.328125 27.371094 37.660156 27.195312 37.84375 26.882812 C 38.117188 26.410156 37.960938 25.804688 37.488281 25.527344 C 36.535156 24.96875 35.996094 24.402344 35.894531 23.839844 C 35.710938 22.847656 36.800781 21.496094 37.851562 20.1875 C 38.820312 18.980469 39.824219 17.734375 40.222656 16.375 C 40.726562 14.660156 40.171875 13.117188 38.570312 11.796875 C 38.148438 11.449219 37.523438 11.507812 37.175781 11.929688 C 36.828125 12.351562 36.886719 12.976562 37.308594 13.324219 C 39.234375 14.910156 38.523438 16.191406 36.308594 18.945312 C 34.976562 20.601562 33.601562 22.3125 33.949219 24.199219 Z M 33.949219 24.199219 " fill-opacity="1" fill-rule="nonzero"/></svg>